<mxfile host="Electron" agent="Mozilla/5.0 (Windows NT 10.0; Win64; x64) AppleWebKit/537.36 (KHTML, like Gecko) draw.io/24.7.5 Chrome/126.0.6478.183 Electron/31.3.0 Safari/537.36" version="24.7.5">
  <diagram name="Page-1" id="9f46799a-70d6-7492-0946-bef42562c5a5">
    <mxGraphModel dx="3485" dy="2566" grid="1" gridSize="10" guides="1" tooltips="1" connect="1" arrows="1" fold="1" page="1" pageScale="1" pageWidth="1100" pageHeight="850" background="none" math="0" shadow="0">
      <root>
        <mxCell id="0" />
        <mxCell id="1" parent="0" />
        <mxCell id="Gh1k9uJhNQ448oXCuwHy-1" value="" style="endArrow=none;dashed=1;html=1;rounded=0;movable=1;resizable=1;rotatable=1;deletable=1;editable=1;locked=0;connectable=1;fillColor=#d80073;strokeColor=#A50040;strokeWidth=9;" parent="1" edge="1">
          <mxGeometry width="50" height="50" relative="1" as="geometry">
            <mxPoint x="520" y="1250" as="sourcePoint" />
            <mxPoint x="520" y="-1010" as="targetPoint" />
          </mxGeometry>
        </mxCell>
        <mxCell id="Gh1k9uJhNQ448oXCuwHy-2" value="Software" style="text;html=1;align=center;verticalAlign=middle;whiteSpace=wrap;rounded=0;movable=0;resizable=0;rotatable=0;deletable=0;editable=0;locked=1;connectable=0;" parent="1" vertex="1">
          <mxGeometry x="460" y="120" width="60" height="30" as="geometry" />
        </mxCell>
        <mxCell id="Gh1k9uJhNQ448oXCuwHy-3" value="Hardware" style="text;html=1;align=center;verticalAlign=middle;whiteSpace=wrap;rounded=0;movable=0;resizable=0;rotatable=0;deletable=0;editable=0;locked=1;connectable=0;" parent="1" vertex="1">
          <mxGeometry x="660" y="120" width="60" height="30" as="geometry" />
        </mxCell>
        <mxCell id="Gh1k9uJhNQ448oXCuwHy-4" value="" style="endArrow=none;dashed=1;html=1;rounded=0;movable=1;resizable=1;rotatable=1;deletable=1;editable=1;locked=0;connectable=1;fillColor=#d80073;strokeColor=#A50040;strokeWidth=9;" parent="1" edge="1">
          <mxGeometry width="50" height="50" relative="1" as="geometry">
            <mxPoint x="630" y="1262.9965649414062" as="sourcePoint" />
            <mxPoint x="640" y="-1000.0033740234376" as="targetPoint" />
          </mxGeometry>
        </mxCell>
        <mxCell id="Gh1k9uJhNQ448oXCuwHy-5" value="World" style="text;html=1;align=center;verticalAlign=middle;whiteSpace=wrap;rounded=0;movable=0;resizable=0;rotatable=0;deletable=0;editable=0;locked=1;connectable=0;" parent="1" vertex="1">
          <mxGeometry x="550" y="120" width="60" height="30" as="geometry" />
        </mxCell>
        <mxCell id="Gh1k9uJhNQ448oXCuwHy-8" value="" style="endArrow=classic;startArrow=classic;html=1;rounded=0;" parent="1" edge="1">
          <mxGeometry width="50" height="50" relative="1" as="geometry">
            <mxPoint x="420" y="390" as="sourcePoint" />
            <mxPoint x="720" y="390" as="targetPoint" />
          </mxGeometry>
        </mxCell>
        <mxCell id="Gh1k9uJhNQ448oXCuwHy-9" value="&lt;font style=&quot;font-size: 17px;&quot;&gt;CAN&lt;/font&gt;" style="edgeLabel;html=1;align=center;verticalAlign=middle;resizable=0;points=[];" parent="Gh1k9uJhNQ448oXCuwHy-8" vertex="1" connectable="0">
          <mxGeometry x="-0.179" relative="1" as="geometry">
            <mxPoint x="37" as="offset" />
          </mxGeometry>
        </mxCell>
        <mxCell id="Gh1k9uJhNQ448oXCuwHy-116" value="" style="group" parent="1" vertex="1" connectable="0">
          <mxGeometry x="890" y="20" width="540" height="180" as="geometry" />
        </mxCell>
        <mxCell id="Gh1k9uJhNQ448oXCuwHy-64" value="" style="group" parent="Gh1k9uJhNQ448oXCuwHy-116" vertex="1" connectable="0">
          <mxGeometry width="540" height="180" as="geometry" />
        </mxCell>
        <mxCell id="Gh1k9uJhNQ448oXCuwHy-14" value="" style="shape=flexArrow;endArrow=classic;html=1;rounded=0;width=4.761904761904762;endSize=9.533333333333333;fillColor=#FFFFFF;fillStyle=solid;endWidth=23.44671201814059;" parent="Gh1k9uJhNQ448oXCuwHy-64" edge="1">
          <mxGeometry width="50" height="50" relative="1" as="geometry">
            <mxPoint x="200" y="100" as="sourcePoint" />
            <mxPoint x="290" y="100" as="targetPoint" />
          </mxGeometry>
        </mxCell>
        <mxCell id="Gh1k9uJhNQ448oXCuwHy-15" value="&lt;font style=&quot;font-size: 24px;&quot;&gt;Motor&lt;/font&gt;" style="ellipse;whiteSpace=wrap;html=1;aspect=fixed;" parent="Gh1k9uJhNQ448oXCuwHy-64" vertex="1">
          <mxGeometry x="290" y="60" width="80" height="80" as="geometry" />
        </mxCell>
        <mxCell id="Gh1k9uJhNQ448oXCuwHy-22" value="" style="shape=flexArrow;endArrow=classic;html=1;rounded=0;width=4.761904761904762;endSize=9.533333333333333;fillColor=#FFFFFF;fillStyle=solid;endWidth=23.44671201814059;" parent="Gh1k9uJhNQ448oXCuwHy-64" edge="1">
          <mxGeometry width="50" height="50" relative="1" as="geometry">
            <mxPoint x="370" y="100" as="sourcePoint" />
            <mxPoint x="460" y="100" as="targetPoint" />
          </mxGeometry>
        </mxCell>
        <mxCell id="Gh1k9uJhNQ448oXCuwHy-23" value="&lt;font style=&quot;font-size: 18px;&quot;&gt;Encoder&lt;/font&gt;" style="ellipse;whiteSpace=wrap;html=1;aspect=fixed;" parent="Gh1k9uJhNQ448oXCuwHy-64" vertex="1">
          <mxGeometry x="460" y="60" width="80" height="80" as="geometry" />
        </mxCell>
        <mxCell id="Gh1k9uJhNQ448oXCuwHy-24" value="" style="edgeStyle=elbowEdgeStyle;elbow=horizontal;endArrow=classic;html=1;curved=0;rounded=0;endSize=8;startSize=8;exitX=0.5;exitY=1;exitDx=0;exitDy=0;" parent="Gh1k9uJhNQ448oXCuwHy-64" source="Gh1k9uJhNQ448oXCuwHy-23" edge="1">
          <mxGeometry width="50" height="50" relative="1" as="geometry">
            <mxPoint x="290" y="240" as="sourcePoint" />
            <mxPoint x="200" y="160" as="targetPoint" />
            <Array as="points">
              <mxPoint x="500" y="160" />
            </Array>
          </mxGeometry>
        </mxCell>
        <mxCell id="Gh1k9uJhNQ448oXCuwHy-27" value="enc B" style="edgeLabel;html=1;align=center;verticalAlign=middle;resizable=0;points=[];" parent="Gh1k9uJhNQ448oXCuwHy-24" vertex="1" connectable="0">
          <mxGeometry x="-0.1883" y="-2" relative="1" as="geometry">
            <mxPoint x="10" as="offset" />
          </mxGeometry>
        </mxCell>
        <mxCell id="Gh1k9uJhNQ448oXCuwHy-25" value="" style="edgeStyle=elbowEdgeStyle;elbow=horizontal;endArrow=classic;html=1;curved=0;rounded=0;endSize=8;startSize=8;exitX=0.5;exitY=1;exitDx=0;exitDy=0;" parent="Gh1k9uJhNQ448oXCuwHy-64" edge="1">
          <mxGeometry width="50" height="50" relative="1" as="geometry">
            <mxPoint x="510" y="140" as="sourcePoint" />
            <mxPoint x="201" y="148" as="targetPoint" />
            <Array as="points">
              <mxPoint x="510" y="160" />
            </Array>
          </mxGeometry>
        </mxCell>
        <mxCell id="Gh1k9uJhNQ448oXCuwHy-26" value="enc A" style="edgeLabel;html=1;align=center;verticalAlign=middle;resizable=0;points=[];" parent="Gh1k9uJhNQ448oXCuwHy-25" vertex="1" connectable="0">
          <mxGeometry x="-0.0127" y="2" relative="1" as="geometry">
            <mxPoint x="6" y="-3" as="offset" />
          </mxGeometry>
        </mxCell>
        <mxCell id="Gh1k9uJhNQ448oXCuwHy-10" value="LEFT FRONT DRIVER" style="swimlane;whiteSpace=wrap;html=1;startSize=20;" parent="Gh1k9uJhNQ448oXCuwHy-64" vertex="1">
          <mxGeometry x="-80" width="280" height="180" as="geometry">
            <mxRectangle x="890" y="150" width="160" height="30" as="alternateBounds" />
          </mxGeometry>
        </mxCell>
        <mxCell id="Gh1k9uJhNQ448oXCuwHy-67" value="encoder decoder" style="rounded=0;whiteSpace=wrap;html=1;" parent="Gh1k9uJhNQ448oXCuwHy-10" vertex="1">
          <mxGeometry x="200" y="140" width="60" height="30" as="geometry" />
        </mxCell>
        <mxCell id="Gh1k9uJhNQ448oXCuwHy-70" style="edgeStyle=orthogonalEdgeStyle;rounded=0;orthogonalLoop=1;jettySize=auto;html=1;exitX=1;exitY=0.5;exitDx=0;exitDy=0;" parent="Gh1k9uJhNQ448oXCuwHy-10" source="Gh1k9uJhNQ448oXCuwHy-68" edge="1">
          <mxGeometry relative="1" as="geometry">
            <mxPoint x="280" y="100" as="targetPoint" />
          </mxGeometry>
        </mxCell>
        <mxCell id="Gh1k9uJhNQ448oXCuwHy-68" value="PID" style="rounded=0;whiteSpace=wrap;html=1;" parent="Gh1k9uJhNQ448oXCuwHy-10" vertex="1">
          <mxGeometry x="200" y="80" width="60" height="40" as="geometry" />
        </mxCell>
        <mxCell id="Gh1k9uJhNQ448oXCuwHy-69" value="" style="endArrow=classic;html=1;rounded=0;exitX=0.5;exitY=0;exitDx=0;exitDy=0;entryX=0.5;entryY=1;entryDx=0;entryDy=0;" parent="Gh1k9uJhNQ448oXCuwHy-10" source="Gh1k9uJhNQ448oXCuwHy-67" target="Gh1k9uJhNQ448oXCuwHy-68" edge="1">
          <mxGeometry width="50" height="50" relative="1" as="geometry">
            <mxPoint x="180" y="170" as="sourcePoint" />
            <mxPoint x="230" y="110" as="targetPoint" />
          </mxGeometry>
        </mxCell>
        <mxCell id="Gh1k9uJhNQ448oXCuwHy-73" value="&lt;font style=&quot;font-size: 4px;&quot;&gt;current angular speed&lt;/font&gt;" style="edgeLabel;html=1;align=center;verticalAlign=middle;resizable=0;points=[];" parent="Gh1k9uJhNQ448oXCuwHy-69" vertex="1" connectable="0">
          <mxGeometry x="-0.1032" y="-1" relative="1" as="geometry">
            <mxPoint x="24" y="-1" as="offset" />
          </mxGeometry>
        </mxCell>
        <mxCell id="Gh1k9uJhNQ448oXCuwHy-72" value="" style="endArrow=classic;html=1;rounded=0;" parent="Gh1k9uJhNQ448oXCuwHy-10" edge="1">
          <mxGeometry width="50" height="50" relative="1" as="geometry">
            <mxPoint x="280" y="160" as="sourcePoint" />
            <mxPoint x="260" y="160" as="targetPoint" />
          </mxGeometry>
        </mxCell>
        <mxCell id="Gh1k9uJhNQ448oXCuwHy-74" value="CAN&amp;nbsp;&lt;div&gt;&lt;font style=&quot;font-size: 7px;&quot;&gt;processor&lt;/font&gt;&lt;/div&gt;" style="rounded=0;whiteSpace=wrap;html=1;" parent="Gh1k9uJhNQ448oXCuwHy-10" vertex="1">
          <mxGeometry y="20" width="40" height="160" as="geometry" />
        </mxCell>
        <mxCell id="Gh1k9uJhNQ448oXCuwHy-76" value="" style="endArrow=classic;html=1;rounded=0;entryX=0.5;entryY=0;entryDx=0;entryDy=0;startArrow=classic;startFill=1;" parent="Gh1k9uJhNQ448oXCuwHy-10" target="Gh1k9uJhNQ448oXCuwHy-68" edge="1">
          <mxGeometry width="50" height="50" relative="1" as="geometry">
            <mxPoint x="40" y="30" as="sourcePoint" />
            <mxPoint x="190" y="80" as="targetPoint" />
            <Array as="points">
              <mxPoint x="230" y="30" />
            </Array>
          </mxGeometry>
        </mxCell>
        <mxCell id="Gh1k9uJhNQ448oXCuwHy-77" value="&lt;font style=&quot;font-size: 7px;&quot;&gt;kp,ki,kd,dt&lt;/font&gt;" style="edgeLabel;html=1;align=center;verticalAlign=middle;resizable=0;points=[];" parent="Gh1k9uJhNQ448oXCuwHy-76" vertex="1" connectable="0">
          <mxGeometry x="0.6373" y="-1" relative="1" as="geometry">
            <mxPoint x="-26" y="-9" as="offset" />
          </mxGeometry>
        </mxCell>
        <mxCell id="Gh1k9uJhNQ448oXCuwHy-78" value="" style="endArrow=classic;html=1;rounded=0;exitX=1.003;exitY=0.126;exitDx=0;exitDy=0;entryX=0;entryY=0.5;entryDx=0;entryDy=0;exitPerimeter=0;startArrow=classic;startFill=1;" parent="Gh1k9uJhNQ448oXCuwHy-10" source="Gh1k9uJhNQ448oXCuwHy-74" target="Gh1k9uJhNQ448oXCuwHy-68" edge="1">
          <mxGeometry width="50" height="50" relative="1" as="geometry">
            <mxPoint x="170" y="110" as="sourcePoint" />
            <mxPoint x="220" y="60" as="targetPoint" />
            <Array as="points">
              <mxPoint x="180" y="40" />
              <mxPoint x="180" y="100" />
            </Array>
          </mxGeometry>
        </mxCell>
        <mxCell id="Gh1k9uJhNQ448oXCuwHy-79" value="&lt;font style=&quot;font-size: 6px;&quot;&gt;targer angular speed&lt;/font&gt;" style="edgeLabel;html=1;align=center;verticalAlign=middle;resizable=0;points=[];rotation=0;" parent="Gh1k9uJhNQ448oXCuwHy-78" vertex="1" connectable="0">
          <mxGeometry x="0.1343" y="-2" relative="1" as="geometry">
            <mxPoint x="-19" y="-4" as="offset" />
          </mxGeometry>
        </mxCell>
        <mxCell id="Gh1k9uJhNQ448oXCuwHy-88" value="" style="endArrow=classic;html=1;rounded=0;exitX=0;exitY=0.75;exitDx=0;exitDy=0;entryX=1.048;entryY=0.891;entryDx=0;entryDy=0;entryPerimeter=0;" parent="Gh1k9uJhNQ448oXCuwHy-10" source="Gh1k9uJhNQ448oXCuwHy-67" target="Gh1k9uJhNQ448oXCuwHy-74" edge="1">
          <mxGeometry width="50" height="50" relative="1" as="geometry">
            <mxPoint x="120" y="130" as="sourcePoint" />
            <mxPoint x="170" y="80" as="targetPoint" />
          </mxGeometry>
        </mxCell>
        <mxCell id="Gh1k9uJhNQ448oXCuwHy-89" value="&lt;span style=&quot;font-size: 4px;&quot;&gt;current angular speed&lt;/span&gt;" style="edgeLabel;html=1;align=center;verticalAlign=middle;resizable=0;points=[];" parent="Gh1k9uJhNQ448oXCuwHy-88" vertex="1" connectable="0">
          <mxGeometry x="-0.086" relative="1" as="geometry">
            <mxPoint x="-4" y="-2" as="offset" />
          </mxGeometry>
        </mxCell>
        <mxCell id="Gh1k9uJhNQ448oXCuwHy-71" value="" style="endArrow=classic;html=1;rounded=0;entryX=1;entryY=0.25;entryDx=0;entryDy=0;" parent="Gh1k9uJhNQ448oXCuwHy-116" target="Gh1k9uJhNQ448oXCuwHy-67" edge="1">
          <mxGeometry width="50" height="50" relative="1" as="geometry">
            <mxPoint x="200" y="148" as="sourcePoint" />
            <mxPoint x="120" y="120" as="targetPoint" />
          </mxGeometry>
        </mxCell>
        <mxCell id="Gh1k9uJhNQ448oXCuwHy-80" value="" style="endArrow=classic;html=1;rounded=0;exitX=1;exitY=0.25;exitDx=0;exitDy=0;startArrow=classic;startFill=1;" parent="Gh1k9uJhNQ448oXCuwHy-116" source="Gh1k9uJhNQ448oXCuwHy-74" edge="1">
          <mxGeometry width="50" height="50" relative="1" as="geometry">
            <mxPoint x="90" y="110" as="sourcePoint" />
            <mxPoint x="120" y="150" as="targetPoint" />
            <Array as="points">
              <mxPoint x="90" y="60" />
              <mxPoint x="90" y="150" />
            </Array>
          </mxGeometry>
        </mxCell>
        <mxCell id="Gh1k9uJhNQ448oXCuwHy-82" value="&lt;font style=&quot;font-size: 5px;&quot;&gt;encoder params&lt;/font&gt;" style="edgeLabel;html=1;align=center;verticalAlign=middle;resizable=0;points=[];" parent="Gh1k9uJhNQ448oXCuwHy-80" vertex="1" connectable="0">
          <mxGeometry x="-0.8184" y="2" relative="1" as="geometry">
            <mxPoint x="17" as="offset" />
          </mxGeometry>
        </mxCell>
        <mxCell id="Gh1k9uJhNQ448oXCuwHy-117" value="" style="group" parent="1" vertex="1" connectable="0">
          <mxGeometry x="890" y="230" width="540" height="180" as="geometry" />
        </mxCell>
        <mxCell id="Gh1k9uJhNQ448oXCuwHy-118" value="" style="group" parent="Gh1k9uJhNQ448oXCuwHy-117" vertex="1" connectable="0">
          <mxGeometry width="540" height="180" as="geometry" />
        </mxCell>
        <mxCell id="Gh1k9uJhNQ448oXCuwHy-119" value="" style="shape=flexArrow;endArrow=classic;html=1;rounded=0;width=4.761904761904762;endSize=9.533333333333333;fillColor=#FFFFFF;fillStyle=solid;endWidth=23.44671201814059;" parent="Gh1k9uJhNQ448oXCuwHy-118" edge="1">
          <mxGeometry width="50" height="50" relative="1" as="geometry">
            <mxPoint x="200" y="100" as="sourcePoint" />
            <mxPoint x="290" y="100" as="targetPoint" />
          </mxGeometry>
        </mxCell>
        <mxCell id="Gh1k9uJhNQ448oXCuwHy-120" value="&lt;font style=&quot;font-size: 24px;&quot;&gt;Motor&lt;/font&gt;" style="ellipse;whiteSpace=wrap;html=1;aspect=fixed;" parent="Gh1k9uJhNQ448oXCuwHy-118" vertex="1">
          <mxGeometry x="290" y="60" width="80" height="80" as="geometry" />
        </mxCell>
        <mxCell id="Gh1k9uJhNQ448oXCuwHy-121" value="" style="shape=flexArrow;endArrow=classic;html=1;rounded=0;width=4.761904761904762;endSize=9.533333333333333;fillColor=#FFFFFF;fillStyle=solid;endWidth=23.44671201814059;" parent="Gh1k9uJhNQ448oXCuwHy-118" edge="1">
          <mxGeometry width="50" height="50" relative="1" as="geometry">
            <mxPoint x="370" y="100" as="sourcePoint" />
            <mxPoint x="460" y="100" as="targetPoint" />
          </mxGeometry>
        </mxCell>
        <mxCell id="Gh1k9uJhNQ448oXCuwHy-122" value="&lt;font style=&quot;font-size: 18px;&quot;&gt;Encoder&lt;/font&gt;" style="ellipse;whiteSpace=wrap;html=1;aspect=fixed;" parent="Gh1k9uJhNQ448oXCuwHy-118" vertex="1">
          <mxGeometry x="460" y="60" width="80" height="80" as="geometry" />
        </mxCell>
        <mxCell id="Gh1k9uJhNQ448oXCuwHy-123" value="" style="edgeStyle=elbowEdgeStyle;elbow=horizontal;endArrow=classic;html=1;curved=0;rounded=0;endSize=8;startSize=8;exitX=0.5;exitY=1;exitDx=0;exitDy=0;" parent="Gh1k9uJhNQ448oXCuwHy-118" source="Gh1k9uJhNQ448oXCuwHy-122" edge="1">
          <mxGeometry width="50" height="50" relative="1" as="geometry">
            <mxPoint x="290" y="240" as="sourcePoint" />
            <mxPoint x="200" y="160" as="targetPoint" />
            <Array as="points">
              <mxPoint x="500" y="160" />
            </Array>
          </mxGeometry>
        </mxCell>
        <mxCell id="Gh1k9uJhNQ448oXCuwHy-124" value="enc B" style="edgeLabel;html=1;align=center;verticalAlign=middle;resizable=0;points=[];" parent="Gh1k9uJhNQ448oXCuwHy-123" vertex="1" connectable="0">
          <mxGeometry x="-0.1883" y="-2" relative="1" as="geometry">
            <mxPoint x="10" as="offset" />
          </mxGeometry>
        </mxCell>
        <mxCell id="Gh1k9uJhNQ448oXCuwHy-125" value="" style="edgeStyle=elbowEdgeStyle;elbow=horizontal;endArrow=classic;html=1;curved=0;rounded=0;endSize=8;startSize=8;exitX=0.5;exitY=1;exitDx=0;exitDy=0;" parent="Gh1k9uJhNQ448oXCuwHy-118" edge="1">
          <mxGeometry width="50" height="50" relative="1" as="geometry">
            <mxPoint x="510" y="140" as="sourcePoint" />
            <mxPoint x="201" y="148" as="targetPoint" />
            <Array as="points">
              <mxPoint x="510" y="160" />
            </Array>
          </mxGeometry>
        </mxCell>
        <mxCell id="Gh1k9uJhNQ448oXCuwHy-126" value="enc A" style="edgeLabel;html=1;align=center;verticalAlign=middle;resizable=0;points=[];" parent="Gh1k9uJhNQ448oXCuwHy-125" vertex="1" connectable="0">
          <mxGeometry x="-0.0127" y="2" relative="1" as="geometry">
            <mxPoint x="6" y="-3" as="offset" />
          </mxGeometry>
        </mxCell>
        <mxCell id="Gh1k9uJhNQ448oXCuwHy-127" value="RIGHT FRONT DRIVER" style="swimlane;whiteSpace=wrap;html=1;startSize=20;" parent="Gh1k9uJhNQ448oXCuwHy-118" vertex="1">
          <mxGeometry x="-80" width="280" height="180" as="geometry">
            <mxRectangle x="890" y="150" width="160" height="30" as="alternateBounds" />
          </mxGeometry>
        </mxCell>
        <mxCell id="Gh1k9uJhNQ448oXCuwHy-128" value="encoder decoder" style="rounded=0;whiteSpace=wrap;html=1;" parent="Gh1k9uJhNQ448oXCuwHy-127" vertex="1">
          <mxGeometry x="200" y="140" width="60" height="30" as="geometry" />
        </mxCell>
        <mxCell id="Gh1k9uJhNQ448oXCuwHy-129" style="edgeStyle=orthogonalEdgeStyle;rounded=0;orthogonalLoop=1;jettySize=auto;html=1;exitX=1;exitY=0.5;exitDx=0;exitDy=0;" parent="Gh1k9uJhNQ448oXCuwHy-127" source="Gh1k9uJhNQ448oXCuwHy-130" edge="1">
          <mxGeometry relative="1" as="geometry">
            <mxPoint x="280" y="100" as="targetPoint" />
          </mxGeometry>
        </mxCell>
        <mxCell id="Gh1k9uJhNQ448oXCuwHy-144" style="edgeStyle=orthogonalEdgeStyle;rounded=0;orthogonalLoop=1;jettySize=auto;html=1;" parent="Gh1k9uJhNQ448oXCuwHy-127" source="Gh1k9uJhNQ448oXCuwHy-130" edge="1">
          <mxGeometry relative="1" as="geometry">
            <mxPoint x="290" y="60" as="targetPoint" />
          </mxGeometry>
        </mxCell>
        <mxCell id="Gh1k9uJhNQ448oXCuwHy-130" value="PID" style="rounded=0;whiteSpace=wrap;html=1;" parent="Gh1k9uJhNQ448oXCuwHy-127" vertex="1">
          <mxGeometry x="200" y="80" width="60" height="40" as="geometry" />
        </mxCell>
        <mxCell id="Gh1k9uJhNQ448oXCuwHy-131" value="" style="endArrow=classic;html=1;rounded=0;exitX=0.5;exitY=0;exitDx=0;exitDy=0;entryX=0.5;entryY=1;entryDx=0;entryDy=0;" parent="Gh1k9uJhNQ448oXCuwHy-127" source="Gh1k9uJhNQ448oXCuwHy-128" target="Gh1k9uJhNQ448oXCuwHy-130" edge="1">
          <mxGeometry width="50" height="50" relative="1" as="geometry">
            <mxPoint x="180" y="170" as="sourcePoint" />
            <mxPoint x="230" y="110" as="targetPoint" />
          </mxGeometry>
        </mxCell>
        <mxCell id="Gh1k9uJhNQ448oXCuwHy-132" value="&lt;font style=&quot;font-size: 4px;&quot;&gt;current angular speed&lt;/font&gt;" style="edgeLabel;html=1;align=center;verticalAlign=middle;resizable=0;points=[];" parent="Gh1k9uJhNQ448oXCuwHy-131" vertex="1" connectable="0">
          <mxGeometry x="-0.1032" y="-1" relative="1" as="geometry">
            <mxPoint x="24" y="-1" as="offset" />
          </mxGeometry>
        </mxCell>
        <mxCell id="Gh1k9uJhNQ448oXCuwHy-133" value="" style="endArrow=classic;html=1;rounded=0;" parent="Gh1k9uJhNQ448oXCuwHy-127" edge="1">
          <mxGeometry width="50" height="50" relative="1" as="geometry">
            <mxPoint x="280" y="160" as="sourcePoint" />
            <mxPoint x="260" y="160" as="targetPoint" />
          </mxGeometry>
        </mxCell>
        <mxCell id="Gh1k9uJhNQ448oXCuwHy-134" value="CAN&amp;nbsp;&lt;div&gt;&lt;font style=&quot;font-size: 7px;&quot;&gt;processor&lt;/font&gt;&lt;/div&gt;" style="rounded=0;whiteSpace=wrap;html=1;" parent="Gh1k9uJhNQ448oXCuwHy-127" vertex="1">
          <mxGeometry y="20" width="40" height="160" as="geometry" />
        </mxCell>
        <mxCell id="Gh1k9uJhNQ448oXCuwHy-135" value="" style="endArrow=classic;html=1;rounded=0;entryX=0.5;entryY=0;entryDx=0;entryDy=0;startArrow=classic;startFill=1;" parent="Gh1k9uJhNQ448oXCuwHy-127" target="Gh1k9uJhNQ448oXCuwHy-130" edge="1">
          <mxGeometry width="50" height="50" relative="1" as="geometry">
            <mxPoint x="40" y="30" as="sourcePoint" />
            <mxPoint x="190" y="80" as="targetPoint" />
            <Array as="points">
              <mxPoint x="230" y="30" />
            </Array>
          </mxGeometry>
        </mxCell>
        <mxCell id="Gh1k9uJhNQ448oXCuwHy-136" value="&lt;font style=&quot;font-size: 7px;&quot;&gt;kp,ki,kd,dt&lt;/font&gt;" style="edgeLabel;html=1;align=center;verticalAlign=middle;resizable=0;points=[];" parent="Gh1k9uJhNQ448oXCuwHy-135" vertex="1" connectable="0">
          <mxGeometry x="0.6373" y="-1" relative="1" as="geometry">
            <mxPoint x="-26" y="-9" as="offset" />
          </mxGeometry>
        </mxCell>
        <mxCell id="Gh1k9uJhNQ448oXCuwHy-137" value="" style="endArrow=classic;html=1;rounded=0;exitX=1.003;exitY=0.126;exitDx=0;exitDy=0;entryX=0;entryY=0.5;entryDx=0;entryDy=0;exitPerimeter=0;startArrow=classic;startFill=1;" parent="Gh1k9uJhNQ448oXCuwHy-127" source="Gh1k9uJhNQ448oXCuwHy-134" target="Gh1k9uJhNQ448oXCuwHy-130" edge="1">
          <mxGeometry width="50" height="50" relative="1" as="geometry">
            <mxPoint x="170" y="110" as="sourcePoint" />
            <mxPoint x="220" y="60" as="targetPoint" />
            <Array as="points">
              <mxPoint x="180" y="40" />
              <mxPoint x="180" y="100" />
            </Array>
          </mxGeometry>
        </mxCell>
        <mxCell id="Gh1k9uJhNQ448oXCuwHy-138" value="&lt;font style=&quot;font-size: 6px;&quot;&gt;targer angular speed&lt;/font&gt;" style="edgeLabel;html=1;align=center;verticalAlign=middle;resizable=0;points=[];rotation=0;" parent="Gh1k9uJhNQ448oXCuwHy-137" vertex="1" connectable="0">
          <mxGeometry x="0.1343" y="-2" relative="1" as="geometry">
            <mxPoint x="-19" y="-4" as="offset" />
          </mxGeometry>
        </mxCell>
        <mxCell id="Gh1k9uJhNQ448oXCuwHy-139" value="" style="endArrow=classic;html=1;rounded=0;exitX=0;exitY=0.75;exitDx=0;exitDy=0;entryX=1.048;entryY=0.891;entryDx=0;entryDy=0;entryPerimeter=0;" parent="Gh1k9uJhNQ448oXCuwHy-127" source="Gh1k9uJhNQ448oXCuwHy-128" target="Gh1k9uJhNQ448oXCuwHy-134" edge="1">
          <mxGeometry width="50" height="50" relative="1" as="geometry">
            <mxPoint x="120" y="130" as="sourcePoint" />
            <mxPoint x="170" y="80" as="targetPoint" />
          </mxGeometry>
        </mxCell>
        <mxCell id="Gh1k9uJhNQ448oXCuwHy-140" value="&lt;span style=&quot;font-size: 4px;&quot;&gt;current angular speed&lt;/span&gt;" style="edgeLabel;html=1;align=center;verticalAlign=middle;resizable=0;points=[];" parent="Gh1k9uJhNQ448oXCuwHy-139" vertex="1" connectable="0">
          <mxGeometry x="-0.086" relative="1" as="geometry">
            <mxPoint x="-4" y="-2" as="offset" />
          </mxGeometry>
        </mxCell>
        <mxCell id="Gh1k9uJhNQ448oXCuwHy-141" value="" style="endArrow=classic;html=1;rounded=0;entryX=1;entryY=0.25;entryDx=0;entryDy=0;" parent="Gh1k9uJhNQ448oXCuwHy-117" target="Gh1k9uJhNQ448oXCuwHy-128" edge="1">
          <mxGeometry width="50" height="50" relative="1" as="geometry">
            <mxPoint x="200" y="148" as="sourcePoint" />
            <mxPoint x="120" y="120" as="targetPoint" />
          </mxGeometry>
        </mxCell>
        <mxCell id="Gh1k9uJhNQ448oXCuwHy-142" value="" style="endArrow=classic;html=1;rounded=0;exitX=1;exitY=0.25;exitDx=0;exitDy=0;startArrow=classic;startFill=1;" parent="Gh1k9uJhNQ448oXCuwHy-117" source="Gh1k9uJhNQ448oXCuwHy-134" edge="1">
          <mxGeometry width="50" height="50" relative="1" as="geometry">
            <mxPoint x="90" y="110" as="sourcePoint" />
            <mxPoint x="120" y="150" as="targetPoint" />
            <Array as="points">
              <mxPoint x="90" y="60" />
              <mxPoint x="90" y="150" />
            </Array>
          </mxGeometry>
        </mxCell>
        <mxCell id="Gh1k9uJhNQ448oXCuwHy-143" value="&lt;font style=&quot;font-size: 5px;&quot;&gt;encoder params&lt;/font&gt;" style="edgeLabel;html=1;align=center;verticalAlign=middle;resizable=0;points=[];" parent="Gh1k9uJhNQ448oXCuwHy-142" vertex="1" connectable="0">
          <mxGeometry x="-0.8184" y="2" relative="1" as="geometry">
            <mxPoint x="17" as="offset" />
          </mxGeometry>
        </mxCell>
        <mxCell id="Gh1k9uJhNQ448oXCuwHy-145" value="" style="group" parent="1" vertex="1" connectable="0">
          <mxGeometry x="890" y="432" width="540" height="180" as="geometry" />
        </mxCell>
        <mxCell id="Gh1k9uJhNQ448oXCuwHy-146" value="" style="group" parent="Gh1k9uJhNQ448oXCuwHy-145" vertex="1" connectable="0">
          <mxGeometry width="540" height="180" as="geometry" />
        </mxCell>
        <mxCell id="Gh1k9uJhNQ448oXCuwHy-147" value="" style="shape=flexArrow;endArrow=classic;html=1;rounded=0;width=4.761904761904762;endSize=9.533333333333333;fillColor=#FFFFFF;fillStyle=solid;endWidth=23.44671201814059;" parent="Gh1k9uJhNQ448oXCuwHy-146" edge="1">
          <mxGeometry width="50" height="50" relative="1" as="geometry">
            <mxPoint x="200" y="100" as="sourcePoint" />
            <mxPoint x="290" y="100" as="targetPoint" />
          </mxGeometry>
        </mxCell>
        <mxCell id="Gh1k9uJhNQ448oXCuwHy-148" value="&lt;font style=&quot;font-size: 24px;&quot;&gt;Motor&lt;/font&gt;" style="ellipse;whiteSpace=wrap;html=1;aspect=fixed;" parent="Gh1k9uJhNQ448oXCuwHy-146" vertex="1">
          <mxGeometry x="290" y="60" width="80" height="80" as="geometry" />
        </mxCell>
        <mxCell id="Gh1k9uJhNQ448oXCuwHy-149" value="" style="shape=flexArrow;endArrow=classic;html=1;rounded=0;width=4.761904761904762;endSize=9.533333333333333;fillColor=#FFFFFF;fillStyle=solid;endWidth=23.44671201814059;" parent="Gh1k9uJhNQ448oXCuwHy-146" edge="1">
          <mxGeometry width="50" height="50" relative="1" as="geometry">
            <mxPoint x="370" y="100" as="sourcePoint" />
            <mxPoint x="460" y="100" as="targetPoint" />
          </mxGeometry>
        </mxCell>
        <mxCell id="Gh1k9uJhNQ448oXCuwHy-150" value="&lt;font style=&quot;font-size: 18px;&quot;&gt;Encoder&lt;/font&gt;" style="ellipse;whiteSpace=wrap;html=1;aspect=fixed;" parent="Gh1k9uJhNQ448oXCuwHy-146" vertex="1">
          <mxGeometry x="460" y="60" width="80" height="80" as="geometry" />
        </mxCell>
        <mxCell id="Gh1k9uJhNQ448oXCuwHy-151" value="" style="edgeStyle=elbowEdgeStyle;elbow=horizontal;endArrow=classic;html=1;curved=0;rounded=0;endSize=8;startSize=8;exitX=0.5;exitY=1;exitDx=0;exitDy=0;" parent="Gh1k9uJhNQ448oXCuwHy-146" source="Gh1k9uJhNQ448oXCuwHy-150" edge="1">
          <mxGeometry width="50" height="50" relative="1" as="geometry">
            <mxPoint x="290" y="240" as="sourcePoint" />
            <mxPoint x="200" y="160" as="targetPoint" />
            <Array as="points">
              <mxPoint x="500" y="160" />
            </Array>
          </mxGeometry>
        </mxCell>
        <mxCell id="Gh1k9uJhNQ448oXCuwHy-152" value="enc B" style="edgeLabel;html=1;align=center;verticalAlign=middle;resizable=0;points=[];" parent="Gh1k9uJhNQ448oXCuwHy-151" vertex="1" connectable="0">
          <mxGeometry x="-0.1883" y="-2" relative="1" as="geometry">
            <mxPoint x="10" as="offset" />
          </mxGeometry>
        </mxCell>
        <mxCell id="Gh1k9uJhNQ448oXCuwHy-153" value="" style="edgeStyle=elbowEdgeStyle;elbow=horizontal;endArrow=classic;html=1;curved=0;rounded=0;endSize=8;startSize=8;exitX=0.5;exitY=1;exitDx=0;exitDy=0;" parent="Gh1k9uJhNQ448oXCuwHy-146" edge="1">
          <mxGeometry width="50" height="50" relative="1" as="geometry">
            <mxPoint x="510" y="140" as="sourcePoint" />
            <mxPoint x="201" y="148" as="targetPoint" />
            <Array as="points">
              <mxPoint x="510" y="160" />
            </Array>
          </mxGeometry>
        </mxCell>
        <mxCell id="Gh1k9uJhNQ448oXCuwHy-154" value="enc A" style="edgeLabel;html=1;align=center;verticalAlign=middle;resizable=0;points=[];" parent="Gh1k9uJhNQ448oXCuwHy-153" vertex="1" connectable="0">
          <mxGeometry x="-0.0127" y="2" relative="1" as="geometry">
            <mxPoint x="6" y="-3" as="offset" />
          </mxGeometry>
        </mxCell>
        <mxCell id="Gh1k9uJhNQ448oXCuwHy-155" value="LEFT REAR DRIVER" style="swimlane;whiteSpace=wrap;html=1;startSize=20;" parent="Gh1k9uJhNQ448oXCuwHy-146" vertex="1">
          <mxGeometry x="-80" width="280" height="180" as="geometry">
            <mxRectangle x="890" y="150" width="160" height="30" as="alternateBounds" />
          </mxGeometry>
        </mxCell>
        <mxCell id="Gh1k9uJhNQ448oXCuwHy-156" value="encoder decoder" style="rounded=0;whiteSpace=wrap;html=1;" parent="Gh1k9uJhNQ448oXCuwHy-155" vertex="1">
          <mxGeometry x="200" y="140" width="60" height="30" as="geometry" />
        </mxCell>
        <mxCell id="Gh1k9uJhNQ448oXCuwHy-157" style="edgeStyle=orthogonalEdgeStyle;rounded=0;orthogonalLoop=1;jettySize=auto;html=1;exitX=1;exitY=0.5;exitDx=0;exitDy=0;" parent="Gh1k9uJhNQ448oXCuwHy-155" source="Gh1k9uJhNQ448oXCuwHy-159" edge="1">
          <mxGeometry relative="1" as="geometry">
            <mxPoint x="280" y="100" as="targetPoint" />
          </mxGeometry>
        </mxCell>
        <mxCell id="Gh1k9uJhNQ448oXCuwHy-159" value="PID" style="rounded=0;whiteSpace=wrap;html=1;" parent="Gh1k9uJhNQ448oXCuwHy-155" vertex="1">
          <mxGeometry x="200" y="80" width="60" height="40" as="geometry" />
        </mxCell>
        <mxCell id="Gh1k9uJhNQ448oXCuwHy-160" value="" style="endArrow=classic;html=1;rounded=0;exitX=0.5;exitY=0;exitDx=0;exitDy=0;entryX=0.5;entryY=1;entryDx=0;entryDy=0;" parent="Gh1k9uJhNQ448oXCuwHy-155" source="Gh1k9uJhNQ448oXCuwHy-156" target="Gh1k9uJhNQ448oXCuwHy-159" edge="1">
          <mxGeometry width="50" height="50" relative="1" as="geometry">
            <mxPoint x="180" y="170" as="sourcePoint" />
            <mxPoint x="230" y="110" as="targetPoint" />
          </mxGeometry>
        </mxCell>
        <mxCell id="Gh1k9uJhNQ448oXCuwHy-161" value="&lt;font style=&quot;font-size: 4px;&quot;&gt;current angular speed&lt;/font&gt;" style="edgeLabel;html=1;align=center;verticalAlign=middle;resizable=0;points=[];" parent="Gh1k9uJhNQ448oXCuwHy-160" vertex="1" connectable="0">
          <mxGeometry x="-0.1032" y="-1" relative="1" as="geometry">
            <mxPoint x="24" y="-1" as="offset" />
          </mxGeometry>
        </mxCell>
        <mxCell id="Gh1k9uJhNQ448oXCuwHy-162" value="" style="endArrow=classic;html=1;rounded=0;" parent="Gh1k9uJhNQ448oXCuwHy-155" edge="1">
          <mxGeometry width="50" height="50" relative="1" as="geometry">
            <mxPoint x="280" y="160" as="sourcePoint" />
            <mxPoint x="260" y="160" as="targetPoint" />
          </mxGeometry>
        </mxCell>
        <mxCell id="Gh1k9uJhNQ448oXCuwHy-163" value="CAN&amp;nbsp;&lt;div&gt;&lt;font style=&quot;font-size: 7px;&quot;&gt;processor&lt;/font&gt;&lt;/div&gt;" style="rounded=0;whiteSpace=wrap;html=1;" parent="Gh1k9uJhNQ448oXCuwHy-155" vertex="1">
          <mxGeometry y="20" width="40" height="160" as="geometry" />
        </mxCell>
        <mxCell id="Gh1k9uJhNQ448oXCuwHy-164" value="" style="endArrow=classic;html=1;rounded=0;entryX=0.5;entryY=0;entryDx=0;entryDy=0;startArrow=classic;startFill=1;" parent="Gh1k9uJhNQ448oXCuwHy-155" target="Gh1k9uJhNQ448oXCuwHy-159" edge="1">
          <mxGeometry width="50" height="50" relative="1" as="geometry">
            <mxPoint x="40" y="30" as="sourcePoint" />
            <mxPoint x="190" y="80" as="targetPoint" />
            <Array as="points">
              <mxPoint x="230" y="30" />
            </Array>
          </mxGeometry>
        </mxCell>
        <mxCell id="Gh1k9uJhNQ448oXCuwHy-165" value="&lt;font style=&quot;font-size: 7px;&quot;&gt;kp,ki,kd,dt&lt;/font&gt;" style="edgeLabel;html=1;align=center;verticalAlign=middle;resizable=0;points=[];" parent="Gh1k9uJhNQ448oXCuwHy-164" vertex="1" connectable="0">
          <mxGeometry x="0.6373" y="-1" relative="1" as="geometry">
            <mxPoint x="-26" y="-9" as="offset" />
          </mxGeometry>
        </mxCell>
        <mxCell id="Gh1k9uJhNQ448oXCuwHy-166" value="" style="endArrow=classic;html=1;rounded=0;exitX=1.003;exitY=0.126;exitDx=0;exitDy=0;entryX=0;entryY=0.5;entryDx=0;entryDy=0;exitPerimeter=0;startArrow=classic;startFill=1;" parent="Gh1k9uJhNQ448oXCuwHy-155" source="Gh1k9uJhNQ448oXCuwHy-163" target="Gh1k9uJhNQ448oXCuwHy-159" edge="1">
          <mxGeometry width="50" height="50" relative="1" as="geometry">
            <mxPoint x="170" y="110" as="sourcePoint" />
            <mxPoint x="220" y="60" as="targetPoint" />
            <Array as="points">
              <mxPoint x="180" y="40" />
              <mxPoint x="180" y="100" />
            </Array>
          </mxGeometry>
        </mxCell>
        <mxCell id="Gh1k9uJhNQ448oXCuwHy-167" value="&lt;font style=&quot;font-size: 6px;&quot;&gt;targer angular speed&lt;/font&gt;" style="edgeLabel;html=1;align=center;verticalAlign=middle;resizable=0;points=[];rotation=0;" parent="Gh1k9uJhNQ448oXCuwHy-166" vertex="1" connectable="0">
          <mxGeometry x="0.1343" y="-2" relative="1" as="geometry">
            <mxPoint x="-19" y="-4" as="offset" />
          </mxGeometry>
        </mxCell>
        <mxCell id="Gh1k9uJhNQ448oXCuwHy-168" value="" style="endArrow=classic;html=1;rounded=0;exitX=0;exitY=0.75;exitDx=0;exitDy=0;entryX=1.048;entryY=0.891;entryDx=0;entryDy=0;entryPerimeter=0;" parent="Gh1k9uJhNQ448oXCuwHy-155" source="Gh1k9uJhNQ448oXCuwHy-156" target="Gh1k9uJhNQ448oXCuwHy-163" edge="1">
          <mxGeometry width="50" height="50" relative="1" as="geometry">
            <mxPoint x="120" y="130" as="sourcePoint" />
            <mxPoint x="170" y="80" as="targetPoint" />
          </mxGeometry>
        </mxCell>
        <mxCell id="Gh1k9uJhNQ448oXCuwHy-169" value="&lt;span style=&quot;font-size: 4px;&quot;&gt;current angular speed&lt;/span&gt;" style="edgeLabel;html=1;align=center;verticalAlign=middle;resizable=0;points=[];" parent="Gh1k9uJhNQ448oXCuwHy-168" vertex="1" connectable="0">
          <mxGeometry x="-0.086" relative="1" as="geometry">
            <mxPoint x="-4" y="-2" as="offset" />
          </mxGeometry>
        </mxCell>
        <mxCell id="Gh1k9uJhNQ448oXCuwHy-170" value="" style="endArrow=classic;html=1;rounded=0;entryX=1;entryY=0.25;entryDx=0;entryDy=0;" parent="Gh1k9uJhNQ448oXCuwHy-145" target="Gh1k9uJhNQ448oXCuwHy-156" edge="1">
          <mxGeometry width="50" height="50" relative="1" as="geometry">
            <mxPoint x="200" y="148" as="sourcePoint" />
            <mxPoint x="120" y="120" as="targetPoint" />
          </mxGeometry>
        </mxCell>
        <mxCell id="Gh1k9uJhNQ448oXCuwHy-171" value="" style="endArrow=classic;html=1;rounded=0;exitX=1;exitY=0.25;exitDx=0;exitDy=0;startArrow=classic;startFill=1;" parent="Gh1k9uJhNQ448oXCuwHy-145" source="Gh1k9uJhNQ448oXCuwHy-163" edge="1">
          <mxGeometry width="50" height="50" relative="1" as="geometry">
            <mxPoint x="90" y="110" as="sourcePoint" />
            <mxPoint x="120" y="150" as="targetPoint" />
            <Array as="points">
              <mxPoint x="90" y="60" />
              <mxPoint x="90" y="150" />
            </Array>
          </mxGeometry>
        </mxCell>
        <mxCell id="Gh1k9uJhNQ448oXCuwHy-172" value="&lt;font style=&quot;font-size: 5px;&quot;&gt;encoder params&lt;/font&gt;" style="edgeLabel;html=1;align=center;verticalAlign=middle;resizable=0;points=[];" parent="Gh1k9uJhNQ448oXCuwHy-171" vertex="1" connectable="0">
          <mxGeometry x="-0.8184" y="2" relative="1" as="geometry">
            <mxPoint x="17" as="offset" />
          </mxGeometry>
        </mxCell>
        <mxCell id="Gh1k9uJhNQ448oXCuwHy-201" value="" style="group" parent="1" vertex="1" connectable="0">
          <mxGeometry x="890" y="652" width="540" height="180" as="geometry" />
        </mxCell>
        <mxCell id="Gh1k9uJhNQ448oXCuwHy-202" value="" style="group" parent="Gh1k9uJhNQ448oXCuwHy-201" vertex="1" connectable="0">
          <mxGeometry width="540" height="180" as="geometry" />
        </mxCell>
        <mxCell id="Gh1k9uJhNQ448oXCuwHy-203" value="" style="shape=flexArrow;endArrow=classic;html=1;rounded=0;width=4.761904761904762;endSize=9.533333333333333;fillColor=#FFFFFF;fillStyle=solid;endWidth=23.44671201814059;" parent="Gh1k9uJhNQ448oXCuwHy-202" edge="1">
          <mxGeometry width="50" height="50" relative="1" as="geometry">
            <mxPoint x="200" y="100" as="sourcePoint" />
            <mxPoint x="290" y="100" as="targetPoint" />
          </mxGeometry>
        </mxCell>
        <mxCell id="Gh1k9uJhNQ448oXCuwHy-204" value="&lt;font style=&quot;font-size: 24px;&quot;&gt;Motor&lt;/font&gt;" style="ellipse;whiteSpace=wrap;html=1;aspect=fixed;" parent="Gh1k9uJhNQ448oXCuwHy-202" vertex="1">
          <mxGeometry x="290" y="60" width="80" height="80" as="geometry" />
        </mxCell>
        <mxCell id="Gh1k9uJhNQ448oXCuwHy-205" value="" style="shape=flexArrow;endArrow=classic;html=1;rounded=0;width=4.761904761904762;endSize=9.533333333333333;fillColor=#FFFFFF;fillStyle=solid;endWidth=23.44671201814059;" parent="Gh1k9uJhNQ448oXCuwHy-202" edge="1">
          <mxGeometry width="50" height="50" relative="1" as="geometry">
            <mxPoint x="370" y="100" as="sourcePoint" />
            <mxPoint x="460" y="100" as="targetPoint" />
          </mxGeometry>
        </mxCell>
        <mxCell id="Gh1k9uJhNQ448oXCuwHy-206" value="&lt;font style=&quot;font-size: 18px;&quot;&gt;Encoder&lt;/font&gt;" style="ellipse;whiteSpace=wrap;html=1;aspect=fixed;" parent="Gh1k9uJhNQ448oXCuwHy-202" vertex="1">
          <mxGeometry x="460" y="60" width="80" height="80" as="geometry" />
        </mxCell>
        <mxCell id="Gh1k9uJhNQ448oXCuwHy-207" value="" style="edgeStyle=elbowEdgeStyle;elbow=horizontal;endArrow=classic;html=1;curved=0;rounded=0;endSize=8;startSize=8;exitX=0.5;exitY=1;exitDx=0;exitDy=0;" parent="Gh1k9uJhNQ448oXCuwHy-202" source="Gh1k9uJhNQ448oXCuwHy-206" edge="1">
          <mxGeometry width="50" height="50" relative="1" as="geometry">
            <mxPoint x="290" y="240" as="sourcePoint" />
            <mxPoint x="200" y="160" as="targetPoint" />
            <Array as="points">
              <mxPoint x="500" y="160" />
            </Array>
          </mxGeometry>
        </mxCell>
        <mxCell id="Gh1k9uJhNQ448oXCuwHy-208" value="enc B" style="edgeLabel;html=1;align=center;verticalAlign=middle;resizable=0;points=[];" parent="Gh1k9uJhNQ448oXCuwHy-207" vertex="1" connectable="0">
          <mxGeometry x="-0.1883" y="-2" relative="1" as="geometry">
            <mxPoint x="10" as="offset" />
          </mxGeometry>
        </mxCell>
        <mxCell id="Gh1k9uJhNQ448oXCuwHy-209" value="" style="edgeStyle=elbowEdgeStyle;elbow=horizontal;endArrow=classic;html=1;curved=0;rounded=0;endSize=8;startSize=8;exitX=0.5;exitY=1;exitDx=0;exitDy=0;" parent="Gh1k9uJhNQ448oXCuwHy-202" edge="1">
          <mxGeometry width="50" height="50" relative="1" as="geometry">
            <mxPoint x="510" y="140" as="sourcePoint" />
            <mxPoint x="201" y="148" as="targetPoint" />
            <Array as="points">
              <mxPoint x="510" y="160" />
            </Array>
          </mxGeometry>
        </mxCell>
        <mxCell id="Gh1k9uJhNQ448oXCuwHy-210" value="enc A" style="edgeLabel;html=1;align=center;verticalAlign=middle;resizable=0;points=[];" parent="Gh1k9uJhNQ448oXCuwHy-209" vertex="1" connectable="0">
          <mxGeometry x="-0.0127" y="2" relative="1" as="geometry">
            <mxPoint x="6" y="-3" as="offset" />
          </mxGeometry>
        </mxCell>
        <mxCell id="Gh1k9uJhNQ448oXCuwHy-211" value="RIGHT REAR DRIVER" style="swimlane;whiteSpace=wrap;html=1;startSize=20;" parent="Gh1k9uJhNQ448oXCuwHy-202" vertex="1">
          <mxGeometry x="-80" width="280" height="180" as="geometry">
            <mxRectangle x="890" y="150" width="160" height="30" as="alternateBounds" />
          </mxGeometry>
        </mxCell>
        <mxCell id="Gh1k9uJhNQ448oXCuwHy-212" value="encoder decoder" style="rounded=0;whiteSpace=wrap;html=1;" parent="Gh1k9uJhNQ448oXCuwHy-211" vertex="1">
          <mxGeometry x="200" y="140" width="60" height="30" as="geometry" />
        </mxCell>
        <mxCell id="Gh1k9uJhNQ448oXCuwHy-213" style="edgeStyle=orthogonalEdgeStyle;rounded=0;orthogonalLoop=1;jettySize=auto;html=1;exitX=1;exitY=0.5;exitDx=0;exitDy=0;" parent="Gh1k9uJhNQ448oXCuwHy-211" source="Gh1k9uJhNQ448oXCuwHy-215" edge="1">
          <mxGeometry relative="1" as="geometry">
            <mxPoint x="280" y="100" as="targetPoint" />
          </mxGeometry>
        </mxCell>
        <mxCell id="Gh1k9uJhNQ448oXCuwHy-215" value="PID" style="rounded=0;whiteSpace=wrap;html=1;" parent="Gh1k9uJhNQ448oXCuwHy-211" vertex="1">
          <mxGeometry x="200" y="80" width="60" height="40" as="geometry" />
        </mxCell>
        <mxCell id="Gh1k9uJhNQ448oXCuwHy-216" value="" style="endArrow=classic;html=1;rounded=0;exitX=0.5;exitY=0;exitDx=0;exitDy=0;entryX=0.5;entryY=1;entryDx=0;entryDy=0;" parent="Gh1k9uJhNQ448oXCuwHy-211" source="Gh1k9uJhNQ448oXCuwHy-212" target="Gh1k9uJhNQ448oXCuwHy-215" edge="1">
          <mxGeometry width="50" height="50" relative="1" as="geometry">
            <mxPoint x="180" y="170" as="sourcePoint" />
            <mxPoint x="230" y="110" as="targetPoint" />
          </mxGeometry>
        </mxCell>
        <mxCell id="Gh1k9uJhNQ448oXCuwHy-217" value="&lt;font style=&quot;font-size: 4px;&quot;&gt;current angular speed&lt;/font&gt;" style="edgeLabel;html=1;align=center;verticalAlign=middle;resizable=0;points=[];" parent="Gh1k9uJhNQ448oXCuwHy-216" vertex="1" connectable="0">
          <mxGeometry x="-0.1032" y="-1" relative="1" as="geometry">
            <mxPoint x="24" y="-1" as="offset" />
          </mxGeometry>
        </mxCell>
        <mxCell id="Gh1k9uJhNQ448oXCuwHy-218" value="" style="endArrow=classic;html=1;rounded=0;" parent="Gh1k9uJhNQ448oXCuwHy-211" edge="1">
          <mxGeometry width="50" height="50" relative="1" as="geometry">
            <mxPoint x="280" y="160" as="sourcePoint" />
            <mxPoint x="260" y="160" as="targetPoint" />
          </mxGeometry>
        </mxCell>
        <mxCell id="Gh1k9uJhNQ448oXCuwHy-219" value="CAN&amp;nbsp;&lt;div&gt;&lt;font style=&quot;font-size: 7px;&quot;&gt;processor&lt;/font&gt;&lt;/div&gt;" style="rounded=0;whiteSpace=wrap;html=1;" parent="Gh1k9uJhNQ448oXCuwHy-211" vertex="1">
          <mxGeometry y="20" width="40" height="160" as="geometry" />
        </mxCell>
        <mxCell id="Gh1k9uJhNQ448oXCuwHy-220" value="" style="endArrow=classic;html=1;rounded=0;entryX=0.5;entryY=0;entryDx=0;entryDy=0;startArrow=classic;startFill=1;" parent="Gh1k9uJhNQ448oXCuwHy-211" target="Gh1k9uJhNQ448oXCuwHy-215" edge="1">
          <mxGeometry width="50" height="50" relative="1" as="geometry">
            <mxPoint x="40" y="30" as="sourcePoint" />
            <mxPoint x="190" y="80" as="targetPoint" />
            <Array as="points">
              <mxPoint x="230" y="30" />
            </Array>
          </mxGeometry>
        </mxCell>
        <mxCell id="Gh1k9uJhNQ448oXCuwHy-221" value="&lt;font style=&quot;font-size: 7px;&quot;&gt;kp,ki,kd,dt&lt;/font&gt;" style="edgeLabel;html=1;align=center;verticalAlign=middle;resizable=0;points=[];" parent="Gh1k9uJhNQ448oXCuwHy-220" vertex="1" connectable="0">
          <mxGeometry x="0.6373" y="-1" relative="1" as="geometry">
            <mxPoint x="-26" y="-9" as="offset" />
          </mxGeometry>
        </mxCell>
        <mxCell id="Gh1k9uJhNQ448oXCuwHy-222" value="" style="endArrow=classic;html=1;rounded=0;exitX=1.003;exitY=0.126;exitDx=0;exitDy=0;entryX=0;entryY=0.5;entryDx=0;entryDy=0;exitPerimeter=0;startArrow=classic;startFill=1;" parent="Gh1k9uJhNQ448oXCuwHy-211" source="Gh1k9uJhNQ448oXCuwHy-219" target="Gh1k9uJhNQ448oXCuwHy-215" edge="1">
          <mxGeometry width="50" height="50" relative="1" as="geometry">
            <mxPoint x="170" y="110" as="sourcePoint" />
            <mxPoint x="220" y="60" as="targetPoint" />
            <Array as="points">
              <mxPoint x="180" y="40" />
              <mxPoint x="180" y="100" />
            </Array>
          </mxGeometry>
        </mxCell>
        <mxCell id="Gh1k9uJhNQ448oXCuwHy-223" value="&lt;font style=&quot;font-size: 6px;&quot;&gt;targer angular speed&lt;/font&gt;" style="edgeLabel;html=1;align=center;verticalAlign=middle;resizable=0;points=[];rotation=0;" parent="Gh1k9uJhNQ448oXCuwHy-222" vertex="1" connectable="0">
          <mxGeometry x="0.1343" y="-2" relative="1" as="geometry">
            <mxPoint x="-19" y="-4" as="offset" />
          </mxGeometry>
        </mxCell>
        <mxCell id="Gh1k9uJhNQ448oXCuwHy-224" value="" style="endArrow=classic;html=1;rounded=0;exitX=0;exitY=0.75;exitDx=0;exitDy=0;entryX=1.048;entryY=0.891;entryDx=0;entryDy=0;entryPerimeter=0;" parent="Gh1k9uJhNQ448oXCuwHy-211" source="Gh1k9uJhNQ448oXCuwHy-212" target="Gh1k9uJhNQ448oXCuwHy-219" edge="1">
          <mxGeometry width="50" height="50" relative="1" as="geometry">
            <mxPoint x="120" y="130" as="sourcePoint" />
            <mxPoint x="170" y="80" as="targetPoint" />
          </mxGeometry>
        </mxCell>
        <mxCell id="Gh1k9uJhNQ448oXCuwHy-225" value="&lt;span style=&quot;font-size: 4px;&quot;&gt;current angular speed&lt;/span&gt;" style="edgeLabel;html=1;align=center;verticalAlign=middle;resizable=0;points=[];" parent="Gh1k9uJhNQ448oXCuwHy-224" vertex="1" connectable="0">
          <mxGeometry x="-0.086" relative="1" as="geometry">
            <mxPoint x="-4" y="-2" as="offset" />
          </mxGeometry>
        </mxCell>
        <mxCell id="Gh1k9uJhNQ448oXCuwHy-226" value="" style="endArrow=classic;html=1;rounded=0;entryX=1;entryY=0.25;entryDx=0;entryDy=0;" parent="Gh1k9uJhNQ448oXCuwHy-201" target="Gh1k9uJhNQ448oXCuwHy-212" edge="1">
          <mxGeometry width="50" height="50" relative="1" as="geometry">
            <mxPoint x="200" y="148" as="sourcePoint" />
            <mxPoint x="120" y="120" as="targetPoint" />
          </mxGeometry>
        </mxCell>
        <mxCell id="Gh1k9uJhNQ448oXCuwHy-227" value="" style="endArrow=classic;html=1;rounded=0;exitX=1;exitY=0.25;exitDx=0;exitDy=0;startArrow=classic;startFill=1;" parent="Gh1k9uJhNQ448oXCuwHy-201" source="Gh1k9uJhNQ448oXCuwHy-219" edge="1">
          <mxGeometry width="50" height="50" relative="1" as="geometry">
            <mxPoint x="90" y="110" as="sourcePoint" />
            <mxPoint x="120" y="150" as="targetPoint" />
            <Array as="points">
              <mxPoint x="90" y="60" />
              <mxPoint x="90" y="150" />
            </Array>
          </mxGeometry>
        </mxCell>
        <mxCell id="Gh1k9uJhNQ448oXCuwHy-228" value="&lt;font style=&quot;font-size: 5px;&quot;&gt;encoder params&lt;/font&gt;" style="edgeLabel;html=1;align=center;verticalAlign=middle;resizable=0;points=[];labelBorderColor=none;textShadow=0;labelBackgroundColor=default;spacing=0;" parent="Gh1k9uJhNQ448oXCuwHy-227" vertex="1" connectable="0">
          <mxGeometry x="-0.8184" y="2" relative="1" as="geometry">
            <mxPoint x="17" as="offset" />
          </mxGeometry>
        </mxCell>
        <mxCell id="Gh1k9uJhNQ448oXCuwHy-229" value="" style="endArrow=none;html=1;rounded=0;strokeWidth=5;" parent="1" edge="1">
          <mxGeometry width="50" height="50" relative="1" as="geometry">
            <mxPoint x="720" y="1090" as="sourcePoint" />
            <mxPoint x="720" y="110" as="targetPoint" />
          </mxGeometry>
        </mxCell>
        <mxCell id="Gh1k9uJhNQ448oXCuwHy-230" value="" style="endArrow=classic;startArrow=classic;html=1;rounded=0;entryX=0;entryY=0.75;entryDx=0;entryDy=0;" parent="1" target="Gh1k9uJhNQ448oXCuwHy-74" edge="1">
          <mxGeometry width="50" height="50" relative="1" as="geometry">
            <mxPoint x="720" y="160" as="sourcePoint" />
            <mxPoint x="790" y="120" as="targetPoint" />
          </mxGeometry>
        </mxCell>
        <mxCell id="Gh1k9uJhNQ448oXCuwHy-231" value="CAN" style="edgeLabel;html=1;align=center;verticalAlign=middle;resizable=0;points=[];" parent="Gh1k9uJhNQ448oXCuwHy-230" vertex="1" connectable="0">
          <mxGeometry x="0.2169" relative="1" as="geometry">
            <mxPoint x="-15" as="offset" />
          </mxGeometry>
        </mxCell>
        <mxCell id="Gh1k9uJhNQ448oXCuwHy-232" value="" style="endArrow=classic;startArrow=classic;html=1;rounded=0;entryX=0;entryY=0.75;entryDx=0;entryDy=0;" parent="1" edge="1">
          <mxGeometry width="50" height="50" relative="1" as="geometry">
            <mxPoint x="720" y="340" as="sourcePoint" />
            <mxPoint x="810" y="340" as="targetPoint" />
          </mxGeometry>
        </mxCell>
        <mxCell id="Gh1k9uJhNQ448oXCuwHy-233" value="CAN" style="edgeLabel;html=1;align=center;verticalAlign=middle;resizable=0;points=[];" parent="Gh1k9uJhNQ448oXCuwHy-232" vertex="1" connectable="0">
          <mxGeometry x="0.2169" relative="1" as="geometry">
            <mxPoint x="-15" as="offset" />
          </mxGeometry>
        </mxCell>
        <mxCell id="Gh1k9uJhNQ448oXCuwHy-234" value="" style="endArrow=classic;startArrow=classic;html=1;rounded=0;entryX=0;entryY=0.75;entryDx=0;entryDy=0;" parent="1" edge="1">
          <mxGeometry width="50" height="50" relative="1" as="geometry">
            <mxPoint x="720" y="530" as="sourcePoint" />
            <mxPoint x="810" y="530" as="targetPoint" />
          </mxGeometry>
        </mxCell>
        <mxCell id="Gh1k9uJhNQ448oXCuwHy-235" value="CAN" style="edgeLabel;html=1;align=center;verticalAlign=middle;resizable=0;points=[];" parent="Gh1k9uJhNQ448oXCuwHy-234" vertex="1" connectable="0">
          <mxGeometry x="0.2169" relative="1" as="geometry">
            <mxPoint x="-15" as="offset" />
          </mxGeometry>
        </mxCell>
        <mxCell id="Gh1k9uJhNQ448oXCuwHy-236" value="" style="endArrow=classic;startArrow=classic;html=1;rounded=0;entryX=0;entryY=0.75;entryDx=0;entryDy=0;" parent="1" edge="1">
          <mxGeometry width="50" height="50" relative="1" as="geometry">
            <mxPoint x="720" y="750" as="sourcePoint" />
            <mxPoint x="810" y="750" as="targetPoint" />
          </mxGeometry>
        </mxCell>
        <mxCell id="Gh1k9uJhNQ448oXCuwHy-237" value="CAN" style="edgeLabel;html=1;align=center;verticalAlign=middle;resizable=0;points=[];" parent="Gh1k9uJhNQ448oXCuwHy-236" vertex="1" connectable="0">
          <mxGeometry x="0.2169" relative="1" as="geometry">
            <mxPoint x="-15" as="offset" />
          </mxGeometry>
        </mxCell>
        <mxCell id="Gh1k9uJhNQ448oXCuwHy-266" value="" style="endArrow=classic;startArrow=classic;html=1;rounded=0;entryX=0;entryY=0.75;entryDx=0;entryDy=0;" parent="1" edge="1">
          <mxGeometry width="50" height="50" relative="1" as="geometry">
            <mxPoint x="720" y="990" as="sourcePoint" />
            <mxPoint x="810" y="990" as="targetPoint" />
          </mxGeometry>
        </mxCell>
        <mxCell id="Gh1k9uJhNQ448oXCuwHy-267" value="CAN" style="edgeLabel;html=1;align=center;verticalAlign=middle;resizable=0;points=[];" parent="Gh1k9uJhNQ448oXCuwHy-266" vertex="1" connectable="0">
          <mxGeometry x="0.2169" relative="1" as="geometry">
            <mxPoint x="-15" as="offset" />
          </mxGeometry>
        </mxCell>
        <mxCell id="Gh1k9uJhNQ448oXCuwHy-335" value="" style="group" parent="1" vertex="1" connectable="0">
          <mxGeometry x="810" y="860" width="510" height="250" as="geometry" />
        </mxCell>
        <mxCell id="Gh1k9uJhNQ448oXCuwHy-248" value="BATTERY CONTROLLER" style="swimlane;whiteSpace=wrap;html=1;startSize=20;" parent="Gh1k9uJhNQ448oXCuwHy-335" vertex="1">
          <mxGeometry width="280" height="250" as="geometry">
            <mxRectangle x="890" y="150" width="160" height="30" as="alternateBounds" />
          </mxGeometry>
        </mxCell>
        <mxCell id="Gh1k9uJhNQ448oXCuwHy-256" value="CAN&amp;nbsp;&lt;div&gt;&lt;font style=&quot;font-size: 7px;&quot;&gt;processor&lt;/font&gt;&lt;/div&gt;" style="rounded=0;whiteSpace=wrap;html=1;" parent="Gh1k9uJhNQ448oXCuwHy-248" vertex="1">
          <mxGeometry y="20" width="40" height="230" as="geometry" />
        </mxCell>
        <mxCell id="Gh1k9uJhNQ448oXCuwHy-294" value="&lt;font style=&quot;font-size: 8px;&quot;&gt;voltage calculator&lt;/font&gt;" style="rounded=1;whiteSpace=wrap;html=1;" parent="Gh1k9uJhNQ448oXCuwHy-248" vertex="1">
          <mxGeometry x="180" y="30" width="80" height="20" as="geometry" />
        </mxCell>
        <mxCell id="Gh1k9uJhNQ448oXCuwHy-311" value="&lt;font style=&quot;font-size: 8px;&quot;&gt;voltage calculator&lt;/font&gt;" style="rounded=1;whiteSpace=wrap;html=1;" parent="Gh1k9uJhNQ448oXCuwHy-248" vertex="1">
          <mxGeometry x="180" y="160" width="80" height="20" as="geometry" />
        </mxCell>
        <mxCell id="Gh1k9uJhNQ448oXCuwHy-312" value="&lt;font style=&quot;font-size: 8px;&quot;&gt;voltage calculator&lt;/font&gt;" style="rounded=1;whiteSpace=wrap;html=1;" parent="Gh1k9uJhNQ448oXCuwHy-248" vertex="1">
          <mxGeometry x="180" y="190" width="80" height="20" as="geometry" />
        </mxCell>
        <mxCell id="Gh1k9uJhNQ448oXCuwHy-313" value="&lt;font style=&quot;font-size: 8px;&quot;&gt;voltage calculator&lt;/font&gt;" style="rounded=1;whiteSpace=wrap;html=1;" parent="Gh1k9uJhNQ448oXCuwHy-248" vertex="1">
          <mxGeometry x="180" y="220" width="80" height="20" as="geometry" />
        </mxCell>
        <mxCell id="Gh1k9uJhNQ448oXCuwHy-314" value="" style="endArrow=classic;html=1;rounded=0;" parent="Gh1k9uJhNQ448oXCuwHy-248" edge="1">
          <mxGeometry width="50" height="50" relative="1" as="geometry">
            <mxPoint x="280" y="170" as="sourcePoint" />
            <mxPoint x="262" y="170" as="targetPoint" />
          </mxGeometry>
        </mxCell>
        <mxCell id="Gh1k9uJhNQ448oXCuwHy-315" value="" style="endArrow=classic;html=1;rounded=0;" parent="Gh1k9uJhNQ448oXCuwHy-248" edge="1">
          <mxGeometry width="50" height="50" relative="1" as="geometry">
            <mxPoint x="280" y="200" as="sourcePoint" />
            <mxPoint x="262" y="200" as="targetPoint" />
          </mxGeometry>
        </mxCell>
        <mxCell id="Gh1k9uJhNQ448oXCuwHy-316" value="" style="endArrow=classic;html=1;rounded=0;" parent="Gh1k9uJhNQ448oXCuwHy-248" edge="1">
          <mxGeometry width="50" height="50" relative="1" as="geometry">
            <mxPoint x="280" y="230" as="sourcePoint" />
            <mxPoint x="262" y="230" as="targetPoint" />
          </mxGeometry>
        </mxCell>
        <mxCell id="Gh1k9uJhNQ448oXCuwHy-268" value="Battery 1" style="shape=table;startSize=30;container=1;collapsible=0;childLayout=tableLayout;fixedRows=1;rowLines=0;fontStyle=0;strokeColor=default;fontSize=16;" parent="Gh1k9uJhNQ448oXCuwHy-335" vertex="1">
          <mxGeometry x="330" width="180" height="120" as="geometry" />
        </mxCell>
        <mxCell id="Gh1k9uJhNQ448oXCuwHy-269" value="" style="shape=tableRow;horizontal=0;startSize=0;swimlaneHead=0;swimlaneBody=0;top=0;left=0;bottom=0;right=0;collapsible=0;dropTarget=0;fillColor=none;points=[[0,0.5],[1,0.5]];portConstraint=eastwest;strokeColor=inherit;fontSize=16;" parent="Gh1k9uJhNQ448oXCuwHy-268" vertex="1">
          <mxGeometry y="30" width="180" height="30" as="geometry" />
        </mxCell>
        <mxCell id="Gh1k9uJhNQ448oXCuwHy-270" value="1" style="shape=partialRectangle;html=1;whiteSpace=wrap;connectable=0;fillColor=none;top=0;left=0;bottom=0;right=0;overflow=hidden;pointerEvents=1;strokeColor=inherit;fontSize=16;" parent="Gh1k9uJhNQ448oXCuwHy-269" vertex="1">
          <mxGeometry width="40" height="30" as="geometry">
            <mxRectangle width="40" height="30" as="alternateBounds" />
          </mxGeometry>
        </mxCell>
        <mxCell id="Gh1k9uJhNQ448oXCuwHy-271" value="Cell 1" style="shape=partialRectangle;html=1;whiteSpace=wrap;connectable=0;fillColor=none;top=0;left=0;bottom=0;right=0;align=left;spacingLeft=6;overflow=hidden;strokeColor=inherit;fontSize=16;" parent="Gh1k9uJhNQ448oXCuwHy-269" vertex="1">
          <mxGeometry x="40" width="140" height="30" as="geometry">
            <mxRectangle width="140" height="30" as="alternateBounds" />
          </mxGeometry>
        </mxCell>
        <mxCell id="Gh1k9uJhNQ448oXCuwHy-272" value="" style="shape=tableRow;horizontal=0;startSize=0;swimlaneHead=0;swimlaneBody=0;top=0;left=0;bottom=0;right=0;collapsible=0;dropTarget=0;fillColor=none;points=[[0,0.5],[1,0.5]];portConstraint=eastwest;strokeColor=inherit;fontSize=16;" parent="Gh1k9uJhNQ448oXCuwHy-268" vertex="1">
          <mxGeometry y="60" width="180" height="30" as="geometry" />
        </mxCell>
        <mxCell id="Gh1k9uJhNQ448oXCuwHy-273" value="2" style="shape=partialRectangle;html=1;whiteSpace=wrap;connectable=0;fillColor=none;top=0;left=0;bottom=0;right=0;overflow=hidden;strokeColor=inherit;fontSize=16;" parent="Gh1k9uJhNQ448oXCuwHy-272" vertex="1">
          <mxGeometry width="40" height="30" as="geometry">
            <mxRectangle width="40" height="30" as="alternateBounds" />
          </mxGeometry>
        </mxCell>
        <mxCell id="Gh1k9uJhNQ448oXCuwHy-274" value="Cell 2" style="shape=partialRectangle;html=1;whiteSpace=wrap;connectable=0;fillColor=none;top=0;left=0;bottom=0;right=0;align=left;spacingLeft=6;overflow=hidden;strokeColor=inherit;fontSize=16;" parent="Gh1k9uJhNQ448oXCuwHy-272" vertex="1">
          <mxGeometry x="40" width="140" height="30" as="geometry">
            <mxRectangle width="140" height="30" as="alternateBounds" />
          </mxGeometry>
        </mxCell>
        <mxCell id="Gh1k9uJhNQ448oXCuwHy-275" value="" style="shape=tableRow;horizontal=0;startSize=0;swimlaneHead=0;swimlaneBody=0;top=0;left=0;bottom=0;right=0;collapsible=0;dropTarget=0;fillColor=none;points=[[0,0.5],[1,0.5]];portConstraint=eastwest;strokeColor=inherit;fontSize=16;" parent="Gh1k9uJhNQ448oXCuwHy-268" vertex="1">
          <mxGeometry y="90" width="180" height="30" as="geometry" />
        </mxCell>
        <mxCell id="Gh1k9uJhNQ448oXCuwHy-276" value="3" style="shape=partialRectangle;html=1;whiteSpace=wrap;connectable=0;fillColor=none;top=0;left=0;bottom=0;right=0;overflow=hidden;strokeColor=inherit;fontSize=16;" parent="Gh1k9uJhNQ448oXCuwHy-275" vertex="1">
          <mxGeometry width="40" height="30" as="geometry">
            <mxRectangle width="40" height="30" as="alternateBounds" />
          </mxGeometry>
        </mxCell>
        <mxCell id="Gh1k9uJhNQ448oXCuwHy-277" value="Cell 3" style="shape=partialRectangle;html=1;whiteSpace=wrap;connectable=0;fillColor=none;top=0;left=0;bottom=0;right=0;align=left;spacingLeft=6;overflow=hidden;strokeColor=inherit;fontSize=16;" parent="Gh1k9uJhNQ448oXCuwHy-275" vertex="1">
          <mxGeometry x="40" width="140" height="30" as="geometry">
            <mxRectangle width="140" height="30" as="alternateBounds" />
          </mxGeometry>
        </mxCell>
        <mxCell id="Gh1k9uJhNQ448oXCuwHy-278" value="Battery 2" style="shape=table;startSize=30;container=1;collapsible=0;childLayout=tableLayout;fixedRows=1;rowLines=0;fontStyle=0;strokeColor=default;fontSize=16;" parent="Gh1k9uJhNQ448oXCuwHy-335" vertex="1">
          <mxGeometry x="330" y="130" width="180" height="120" as="geometry" />
        </mxCell>
        <mxCell id="Gh1k9uJhNQ448oXCuwHy-279" value="" style="shape=tableRow;horizontal=0;startSize=0;swimlaneHead=0;swimlaneBody=0;top=0;left=0;bottom=0;right=0;collapsible=0;dropTarget=0;fillColor=none;points=[[0,0.5],[1,0.5]];portConstraint=eastwest;strokeColor=inherit;fontSize=16;" parent="Gh1k9uJhNQ448oXCuwHy-278" vertex="1">
          <mxGeometry y="30" width="180" height="30" as="geometry" />
        </mxCell>
        <mxCell id="Gh1k9uJhNQ448oXCuwHy-280" value="1" style="shape=partialRectangle;html=1;whiteSpace=wrap;connectable=0;fillColor=none;top=0;left=0;bottom=0;right=0;overflow=hidden;pointerEvents=1;strokeColor=inherit;fontSize=16;" parent="Gh1k9uJhNQ448oXCuwHy-279" vertex="1">
          <mxGeometry width="40" height="30" as="geometry">
            <mxRectangle width="40" height="30" as="alternateBounds" />
          </mxGeometry>
        </mxCell>
        <mxCell id="Gh1k9uJhNQ448oXCuwHy-281" value="Cell 1" style="shape=partialRectangle;html=1;whiteSpace=wrap;connectable=0;fillColor=none;top=0;left=0;bottom=0;right=0;align=left;spacingLeft=6;overflow=hidden;strokeColor=inherit;fontSize=16;" parent="Gh1k9uJhNQ448oXCuwHy-279" vertex="1">
          <mxGeometry x="40" width="140" height="30" as="geometry">
            <mxRectangle width="140" height="30" as="alternateBounds" />
          </mxGeometry>
        </mxCell>
        <mxCell id="Gh1k9uJhNQ448oXCuwHy-282" value="" style="shape=tableRow;horizontal=0;startSize=0;swimlaneHead=0;swimlaneBody=0;top=0;left=0;bottom=0;right=0;collapsible=0;dropTarget=0;fillColor=none;points=[[0,0.5],[1,0.5]];portConstraint=eastwest;strokeColor=inherit;fontSize=16;" parent="Gh1k9uJhNQ448oXCuwHy-278" vertex="1">
          <mxGeometry y="60" width="180" height="30" as="geometry" />
        </mxCell>
        <mxCell id="Gh1k9uJhNQ448oXCuwHy-283" value="2" style="shape=partialRectangle;html=1;whiteSpace=wrap;connectable=0;fillColor=none;top=0;left=0;bottom=0;right=0;overflow=hidden;strokeColor=inherit;fontSize=16;" parent="Gh1k9uJhNQ448oXCuwHy-282" vertex="1">
          <mxGeometry width="40" height="30" as="geometry">
            <mxRectangle width="40" height="30" as="alternateBounds" />
          </mxGeometry>
        </mxCell>
        <mxCell id="Gh1k9uJhNQ448oXCuwHy-284" value="Cell 2" style="shape=partialRectangle;html=1;whiteSpace=wrap;connectable=0;fillColor=none;top=0;left=0;bottom=0;right=0;align=left;spacingLeft=6;overflow=hidden;strokeColor=inherit;fontSize=16;" parent="Gh1k9uJhNQ448oXCuwHy-282" vertex="1">
          <mxGeometry x="40" width="140" height="30" as="geometry">
            <mxRectangle width="140" height="30" as="alternateBounds" />
          </mxGeometry>
        </mxCell>
        <mxCell id="Gh1k9uJhNQ448oXCuwHy-285" value="" style="shape=tableRow;horizontal=0;startSize=0;swimlaneHead=0;swimlaneBody=0;top=0;left=0;bottom=0;right=0;collapsible=0;dropTarget=0;fillColor=none;points=[[0,0.5],[1,0.5]];portConstraint=eastwest;strokeColor=inherit;fontSize=16;" parent="Gh1k9uJhNQ448oXCuwHy-278" vertex="1">
          <mxGeometry y="90" width="180" height="30" as="geometry" />
        </mxCell>
        <mxCell id="Gh1k9uJhNQ448oXCuwHy-286" value="3" style="shape=partialRectangle;html=1;whiteSpace=wrap;connectable=0;fillColor=none;top=0;left=0;bottom=0;right=0;overflow=hidden;strokeColor=inherit;fontSize=16;" parent="Gh1k9uJhNQ448oXCuwHy-285" vertex="1">
          <mxGeometry width="40" height="30" as="geometry">
            <mxRectangle width="40" height="30" as="alternateBounds" />
          </mxGeometry>
        </mxCell>
        <mxCell id="Gh1k9uJhNQ448oXCuwHy-287" value="Cell 3" style="shape=partialRectangle;html=1;whiteSpace=wrap;connectable=0;fillColor=none;top=0;left=0;bottom=0;right=0;align=left;spacingLeft=6;overflow=hidden;strokeColor=inherit;fontSize=16;" parent="Gh1k9uJhNQ448oXCuwHy-285" vertex="1">
          <mxGeometry x="40" width="140" height="30" as="geometry">
            <mxRectangle width="140" height="30" as="alternateBounds" />
          </mxGeometry>
        </mxCell>
        <mxCell id="Gh1k9uJhNQ448oXCuwHy-288" value="" style="endArrow=classic;html=1;rounded=0;exitX=0.002;exitY=0.337;exitDx=0;exitDy=0;exitPerimeter=0;" parent="Gh1k9uJhNQ448oXCuwHy-335" source="Gh1k9uJhNQ448oXCuwHy-269" edge="1">
          <mxGeometry width="50" height="50" relative="1" as="geometry">
            <mxPoint x="280" y="80" as="sourcePoint" />
            <mxPoint x="280" y="40" as="targetPoint" />
          </mxGeometry>
        </mxCell>
        <mxCell id="Gh1k9uJhNQ448oXCuwHy-289" value="" style="endArrow=classic;html=1;rounded=0;exitX=0.002;exitY=0.337;exitDx=0;exitDy=0;exitPerimeter=0;" parent="Gh1k9uJhNQ448oXCuwHy-335" edge="1">
          <mxGeometry width="50" height="50" relative="1" as="geometry">
            <mxPoint x="330" y="70" as="sourcePoint" />
            <mxPoint x="280" y="70" as="targetPoint" />
          </mxGeometry>
        </mxCell>
        <mxCell id="Gh1k9uJhNQ448oXCuwHy-290" value="" style="endArrow=classic;html=1;rounded=0;exitX=0.002;exitY=0.337;exitDx=0;exitDy=0;exitPerimeter=0;" parent="Gh1k9uJhNQ448oXCuwHy-335" edge="1">
          <mxGeometry width="50" height="50" relative="1" as="geometry">
            <mxPoint x="330" y="100" as="sourcePoint" />
            <mxPoint x="280" y="100" as="targetPoint" />
          </mxGeometry>
        </mxCell>
        <mxCell id="Gh1k9uJhNQ448oXCuwHy-291" value="" style="endArrow=classic;html=1;rounded=0;exitX=0.002;exitY=0.337;exitDx=0;exitDy=0;exitPerimeter=0;" parent="Gh1k9uJhNQ448oXCuwHy-335" edge="1">
          <mxGeometry width="50" height="50" relative="1" as="geometry">
            <mxPoint x="330" y="170" as="sourcePoint" />
            <mxPoint x="280" y="170" as="targetPoint" />
          </mxGeometry>
        </mxCell>
        <mxCell id="Gh1k9uJhNQ448oXCuwHy-292" value="" style="endArrow=classic;html=1;rounded=0;exitX=0.002;exitY=0.337;exitDx=0;exitDy=0;exitPerimeter=0;" parent="Gh1k9uJhNQ448oXCuwHy-335" edge="1">
          <mxGeometry width="50" height="50" relative="1" as="geometry">
            <mxPoint x="330" y="200" as="sourcePoint" />
            <mxPoint x="280" y="200" as="targetPoint" />
          </mxGeometry>
        </mxCell>
        <mxCell id="Gh1k9uJhNQ448oXCuwHy-293" value="" style="endArrow=classic;html=1;rounded=0;exitX=0.002;exitY=0.337;exitDx=0;exitDy=0;exitPerimeter=0;" parent="Gh1k9uJhNQ448oXCuwHy-335" edge="1">
          <mxGeometry width="50" height="50" relative="1" as="geometry">
            <mxPoint x="330" y="230" as="sourcePoint" />
            <mxPoint x="280" y="230" as="targetPoint" />
          </mxGeometry>
        </mxCell>
        <mxCell id="Gh1k9uJhNQ448oXCuwHy-295" value="&lt;font style=&quot;font-size: 8px;&quot;&gt;voltage calculator&lt;/font&gt;" style="rounded=1;whiteSpace=wrap;html=1;" parent="Gh1k9uJhNQ448oXCuwHy-335" vertex="1">
          <mxGeometry x="180" y="60" width="80" height="20" as="geometry" />
        </mxCell>
        <mxCell id="Gh1k9uJhNQ448oXCuwHy-296" value="&lt;font style=&quot;font-size: 8px;&quot;&gt;voltage calculator&lt;/font&gt;" style="rounded=1;whiteSpace=wrap;html=1;" parent="Gh1k9uJhNQ448oXCuwHy-335" vertex="1">
          <mxGeometry x="180" y="90" width="80" height="20" as="geometry" />
        </mxCell>
        <mxCell id="Gh1k9uJhNQ448oXCuwHy-297" value="" style="endArrow=classic;html=1;rounded=0;" parent="Gh1k9uJhNQ448oXCuwHy-335" edge="1">
          <mxGeometry width="50" height="50" relative="1" as="geometry">
            <mxPoint x="280" y="40" as="sourcePoint" />
            <mxPoint x="262" y="40" as="targetPoint" />
          </mxGeometry>
        </mxCell>
        <mxCell id="Gh1k9uJhNQ448oXCuwHy-298" value="" style="endArrow=classic;html=1;rounded=0;" parent="Gh1k9uJhNQ448oXCuwHy-335" edge="1">
          <mxGeometry width="50" height="50" relative="1" as="geometry">
            <mxPoint x="280" y="70" as="sourcePoint" />
            <mxPoint x="262" y="70" as="targetPoint" />
          </mxGeometry>
        </mxCell>
        <mxCell id="Gh1k9uJhNQ448oXCuwHy-299" value="" style="endArrow=classic;html=1;rounded=0;" parent="Gh1k9uJhNQ448oXCuwHy-335" edge="1">
          <mxGeometry width="50" height="50" relative="1" as="geometry">
            <mxPoint x="280" y="100" as="sourcePoint" />
            <mxPoint x="262" y="100" as="targetPoint" />
          </mxGeometry>
        </mxCell>
        <mxCell id="Gh1k9uJhNQ448oXCuwHy-317" value="" style="endArrow=classic;html=1;rounded=0;entryX=1.035;entryY=0.648;entryDx=0;entryDy=0;entryPerimeter=0;" parent="Gh1k9uJhNQ448oXCuwHy-335" target="Gh1k9uJhNQ448oXCuwHy-256" edge="1">
          <mxGeometry width="50" height="50" relative="1" as="geometry">
            <mxPoint x="179" y="170" as="sourcePoint" />
            <mxPoint x="161" y="170" as="targetPoint" />
          </mxGeometry>
        </mxCell>
        <mxCell id="Gh1k9uJhNQ448oXCuwHy-318" value="" style="endArrow=classic;html=1;rounded=0;entryX=1.042;entryY=0.784;entryDx=0;entryDy=0;entryPerimeter=0;" parent="Gh1k9uJhNQ448oXCuwHy-335" target="Gh1k9uJhNQ448oXCuwHy-256" edge="1">
          <mxGeometry width="50" height="50" relative="1" as="geometry">
            <mxPoint x="179" y="200" as="sourcePoint" />
            <mxPoint x="161" y="200" as="targetPoint" />
          </mxGeometry>
        </mxCell>
        <mxCell id="Gh1k9uJhNQ448oXCuwHy-319" value="" style="endArrow=classic;html=1;rounded=0;entryX=1.011;entryY=0.911;entryDx=0;entryDy=0;entryPerimeter=0;" parent="Gh1k9uJhNQ448oXCuwHy-335" target="Gh1k9uJhNQ448oXCuwHy-256" edge="1">
          <mxGeometry width="50" height="50" relative="1" as="geometry">
            <mxPoint x="179" y="230" as="sourcePoint" />
            <mxPoint x="161" y="230" as="targetPoint" />
          </mxGeometry>
        </mxCell>
        <mxCell id="Gh1k9uJhNQ448oXCuwHy-332" value="" style="endArrow=classic;html=1;rounded=0;entryX=1.035;entryY=0.648;entryDx=0;entryDy=0;entryPerimeter=0;" parent="Gh1k9uJhNQ448oXCuwHy-335" edge="1">
          <mxGeometry width="50" height="50" relative="1" as="geometry">
            <mxPoint x="180" y="39" as="sourcePoint" />
            <mxPoint x="42" y="38" as="targetPoint" />
          </mxGeometry>
        </mxCell>
        <mxCell id="Gh1k9uJhNQ448oXCuwHy-333" value="" style="endArrow=classic;html=1;rounded=0;entryX=1.042;entryY=0.784;entryDx=0;entryDy=0;entryPerimeter=0;" parent="Gh1k9uJhNQ448oXCuwHy-335" edge="1">
          <mxGeometry width="50" height="50" relative="1" as="geometry">
            <mxPoint x="180" y="69" as="sourcePoint" />
            <mxPoint x="43" y="69" as="targetPoint" />
          </mxGeometry>
        </mxCell>
        <mxCell id="Gh1k9uJhNQ448oXCuwHy-334" value="" style="endArrow=classic;html=1;rounded=0;entryX=1.011;entryY=0.911;entryDx=0;entryDy=0;entryPerimeter=0;" parent="Gh1k9uJhNQ448oXCuwHy-335" edge="1">
          <mxGeometry width="50" height="50" relative="1" as="geometry">
            <mxPoint x="180" y="99" as="sourcePoint" />
            <mxPoint x="41" y="99" as="targetPoint" />
          </mxGeometry>
        </mxCell>
        <mxCell id="Gh1k9uJhNQ448oXCuwHy-337" value="socket_can" style="rounded=1;whiteSpace=wrap;html=1;" parent="1" vertex="1">
          <mxGeometry x="300" y="370" width="120" height="40" as="geometry" />
        </mxCell>
        <mxCell id="Gh1k9uJhNQ448oXCuwHy-338" value="/can/input_can_msgs" style="ellipse;shape=cloud;whiteSpace=wrap;html=1;" parent="1" vertex="1">
          <mxGeometry x="-20" y="350" width="200" height="80" as="geometry" />
        </mxCell>
        <mxCell id="Gh1k9uJhNQ448oXCuwHy-339" style="edgeStyle=orthogonalEdgeStyle;rounded=0;orthogonalLoop=1;jettySize=auto;html=1;entryX=0.875;entryY=0.5;entryDx=0;entryDy=0;entryPerimeter=0;" parent="1" source="Gh1k9uJhNQ448oXCuwHy-337" target="Gh1k9uJhNQ448oXCuwHy-338" edge="1">
          <mxGeometry relative="1" as="geometry" />
        </mxCell>
        <mxCell id="Gh1k9uJhNQ448oXCuwHy-340" value="omnibot_motor_can_&lt;span style=&quot;background-color: initial;&quot;&gt;drv&lt;/span&gt;" style="rounded=1;whiteSpace=wrap;html=1;" parent="1" vertex="1">
          <mxGeometry x="-240" y="170" width="170" height="60" as="geometry" />
        </mxCell>
        <mxCell id="Gh1k9uJhNQ448oXCuwHy-341" value="REALSENSE T265" style="rounded=1;whiteSpace=wrap;html=1;" parent="1" vertex="1">
          <mxGeometry x="710" y="-350" width="120" height="60" as="geometry" />
        </mxCell>
        <mxCell id="Gh1k9uJhNQ448oXCuwHy-342" value="REALSENSE D435" style="rounded=1;whiteSpace=wrap;html=1;" parent="1" vertex="1">
          <mxGeometry x="710" y="-250" width="120" height="60" as="geometry" />
        </mxCell>
        <mxCell id="Gh1k9uJhNQ448oXCuwHy-343" value="" style="endArrow=classic;startArrow=classic;html=1;rounded=0;entryX=0;entryY=0.5;entryDx=0;entryDy=0;" parent="1" target="Gh1k9uJhNQ448oXCuwHy-341" edge="1">
          <mxGeometry width="50" height="50" relative="1" as="geometry">
            <mxPoint x="440" y="-320" as="sourcePoint" />
            <mxPoint x="605" y="-345" as="targetPoint" />
          </mxGeometry>
        </mxCell>
        <mxCell id="Gh1k9uJhNQ448oXCuwHy-344" value="&lt;font style=&quot;font-size: 15px;&quot;&gt;USB 3.X&lt;/font&gt;" style="edgeLabel;html=1;align=center;verticalAlign=middle;resizable=0;points=[];" parent="Gh1k9uJhNQ448oXCuwHy-343" vertex="1" connectable="0">
          <mxGeometry x="0.1333" y="4" relative="1" as="geometry">
            <mxPoint x="-13" y="4" as="offset" />
          </mxGeometry>
        </mxCell>
        <mxCell id="Gh1k9uJhNQ448oXCuwHy-362" value="rs_nodelet" style="rounded=1;whiteSpace=wrap;html=1;" parent="1" vertex="1">
          <mxGeometry x="250" y="-340" width="190" height="40" as="geometry" />
        </mxCell>
        <mxCell id="Gh1k9uJhNQ448oXCuwHy-363" value="" style="endArrow=classic;startArrow=classic;html=1;rounded=0;entryX=0;entryY=0.5;entryDx=0;entryDy=0;" parent="1" edge="1">
          <mxGeometry width="50" height="50" relative="1" as="geometry">
            <mxPoint x="440" y="-220" as="sourcePoint" />
            <mxPoint x="710" y="-220" as="targetPoint" />
          </mxGeometry>
        </mxCell>
        <mxCell id="Gh1k9uJhNQ448oXCuwHy-364" value="&lt;font style=&quot;font-size: 15px;&quot;&gt;USB 3.X&lt;/font&gt;" style="edgeLabel;html=1;align=center;verticalAlign=middle;resizable=0;points=[];" parent="Gh1k9uJhNQ448oXCuwHy-363" vertex="1" connectable="0">
          <mxGeometry x="0.1333" y="4" relative="1" as="geometry">
            <mxPoint x="-13" y="4" as="offset" />
          </mxGeometry>
        </mxCell>
        <mxCell id="Gh1k9uJhNQ448oXCuwHy-365" value="rs_nodelet" style="rounded=1;whiteSpace=wrap;html=1;" parent="1" vertex="1">
          <mxGeometry x="250" y="-240" width="190" height="40" as="geometry" />
        </mxCell>
        <mxCell id="Gh1k9uJhNQ448oXCuwHy-366" value="/d435/point_cloud" style="ellipse;shape=cloud;whiteSpace=wrap;html=1;" parent="1" vertex="1">
          <mxGeometry x="-10" y="-360" width="150" height="80" as="geometry" />
        </mxCell>
        <mxCell id="Gh1k9uJhNQ448oXCuwHy-377" style="edgeStyle=orthogonalEdgeStyle;rounded=0;orthogonalLoop=1;jettySize=auto;html=1;entryX=1;entryY=0.5;entryDx=0;entryDy=0;exitX=0.16;exitY=0.55;exitDx=0;exitDy=0;exitPerimeter=0;" parent="1" source="Gh1k9uJhNQ448oXCuwHy-367" target="Gh1k9uJhNQ448oXCuwHy-376" edge="1">
          <mxGeometry relative="1" as="geometry">
            <Array as="points">
              <mxPoint x="-30" y="-216" />
              <mxPoint x="-30" y="-210" />
            </Array>
          </mxGeometry>
        </mxCell>
        <mxCell id="Gh1k9uJhNQ448oXCuwHy-367" value="/t265/odom" style="ellipse;shape=cloud;whiteSpace=wrap;html=1;" parent="1" vertex="1">
          <mxGeometry x="-10" y="-260" width="150" height="80" as="geometry" />
        </mxCell>
        <mxCell id="Gh1k9uJhNQ448oXCuwHy-368" value="" style="endArrow=classic;html=1;rounded=0;entryX=0.875;entryY=0.5;entryDx=0;entryDy=0;entryPerimeter=0;exitX=0;exitY=0.5;exitDx=0;exitDy=0;" parent="1" source="Gh1k9uJhNQ448oXCuwHy-365" target="Gh1k9uJhNQ448oXCuwHy-367" edge="1">
          <mxGeometry width="50" height="50" relative="1" as="geometry">
            <mxPoint x="250" y="-140" as="sourcePoint" />
            <mxPoint x="300" y="-190" as="targetPoint" />
          </mxGeometry>
        </mxCell>
        <mxCell id="Gh1k9uJhNQ448oXCuwHy-370" style="edgeStyle=orthogonalEdgeStyle;rounded=0;orthogonalLoop=1;jettySize=auto;html=1;exitX=0;exitY=0.5;exitDx=0;exitDy=0;entryX=0.875;entryY=0.5;entryDx=0;entryDy=0;entryPerimeter=0;" parent="1" source="Gh1k9uJhNQ448oXCuwHy-362" target="Gh1k9uJhNQ448oXCuwHy-366" edge="1">
          <mxGeometry relative="1" as="geometry" />
        </mxCell>
        <mxCell id="Gh1k9uJhNQ448oXCuwHy-374" value="RTABMAP_ROS2" style="rounded=1;whiteSpace=wrap;html=1;" parent="1" vertex="1">
          <mxGeometry x="-470" y="-310" width="180" height="90" as="geometry" />
        </mxCell>
        <mxCell id="Gh1k9uJhNQ448oXCuwHy-378" style="edgeStyle=orthogonalEdgeStyle;rounded=0;orthogonalLoop=1;jettySize=auto;html=1;entryX=1;entryY=0.75;entryDx=0;entryDy=0;" parent="1" source="Gh1k9uJhNQ448oXCuwHy-376" target="Gh1k9uJhNQ448oXCuwHy-374" edge="1">
          <mxGeometry relative="1" as="geometry" />
        </mxCell>
        <mxCell id="Gh1k9uJhNQ448oXCuwHy-379" value="/odom" style="edgeLabel;html=1;align=center;verticalAlign=middle;resizable=0;points=[];" parent="Gh1k9uJhNQ448oXCuwHy-378" vertex="1" connectable="0">
          <mxGeometry x="0.2697" y="-1" relative="1" as="geometry">
            <mxPoint y="13" as="offset" />
          </mxGeometry>
        </mxCell>
        <mxCell id="Gh1k9uJhNQ448oXCuwHy-376" value="rt265_odom to odom&lt;div&gt;transformation&lt;/div&gt;&lt;div&gt;node&lt;/div&gt;" style="rounded=1;whiteSpace=wrap;html=1;" parent="1" vertex="1">
          <mxGeometry x="-200" y="-240" width="120" height="60" as="geometry" />
        </mxCell>
        <mxCell id="Gh1k9uJhNQ448oXCuwHy-381" value="/t265_frame" style="ellipse;shape=cloud;whiteSpace=wrap;html=1;" parent="1" vertex="1">
          <mxGeometry x="5" y="-180" width="120" height="80" as="geometry" />
        </mxCell>
        <mxCell id="Gh1k9uJhNQ448oXCuwHy-382" value="/d435_frame" style="ellipse;shape=cloud;whiteSpace=wrap;html=1;" parent="1" vertex="1">
          <mxGeometry x="5" y="-450" width="120" height="80" as="geometry" />
        </mxCell>
        <mxCell id="Gh1k9uJhNQ448oXCuwHy-384" value="" style="edgeStyle=elbowEdgeStyle;elbow=horizontal;endArrow=classic;html=1;curved=0;rounded=0;endSize=8;startSize=8;exitX=0.16;exitY=0.55;exitDx=0;exitDy=0;exitPerimeter=0;entryX=1;entryY=0.25;entryDx=0;entryDy=0;" parent="1" source="Gh1k9uJhNQ448oXCuwHy-382" target="Gh1k9uJhNQ448oXCuwHy-374" edge="1">
          <mxGeometry width="50" height="50" relative="1" as="geometry">
            <mxPoint x="-270" y="-340" as="sourcePoint" />
            <mxPoint x="-220" y="-390" as="targetPoint" />
            <Array as="points">
              <mxPoint x="-250" y="-340" />
            </Array>
          </mxGeometry>
        </mxCell>
        <mxCell id="Gh1k9uJhNQ448oXCuwHy-385" value="" style="edgeStyle=elbowEdgeStyle;elbow=horizontal;endArrow=classic;html=1;curved=0;rounded=0;endSize=8;startSize=8;entryX=1;entryY=0.75;entryDx=0;entryDy=0;exitX=0.16;exitY=0.55;exitDx=0;exitDy=0;exitPerimeter=0;" parent="1" source="Gh1k9uJhNQ448oXCuwHy-381" target="Gh1k9uJhNQ448oXCuwHy-376" edge="1">
          <mxGeometry width="50" height="50" relative="1" as="geometry">
            <mxPoint x="-220" y="-80" as="sourcePoint" />
            <mxPoint x="-170" y="-130" as="targetPoint" />
          </mxGeometry>
        </mxCell>
        <mxCell id="Gh1k9uJhNQ448oXCuwHy-387" value="" style="edgeStyle=elbowEdgeStyle;elbow=horizontal;endArrow=classic;html=1;curved=0;rounded=0;endSize=8;startSize=8;entryX=0.875;entryY=0.5;entryDx=0;entryDy=0;entryPerimeter=0;" parent="1" target="Gh1k9uJhNQ448oXCuwHy-381" edge="1">
          <mxGeometry width="50" height="50" relative="1" as="geometry">
            <mxPoint x="250" y="-220" as="sourcePoint" />
            <mxPoint x="270" y="-140" as="targetPoint" />
          </mxGeometry>
        </mxCell>
        <mxCell id="Gh1k9uJhNQ448oXCuwHy-388" value="" style="edgeStyle=elbowEdgeStyle;elbow=horizontal;endArrow=classic;html=1;curved=0;rounded=0;endSize=8;startSize=8;entryX=0.875;entryY=0.5;entryDx=0;entryDy=0;entryPerimeter=0;" parent="1" target="Gh1k9uJhNQ448oXCuwHy-382" edge="1">
          <mxGeometry width="50" height="50" relative="1" as="geometry">
            <mxPoint x="250" y="-320" as="sourcePoint" />
            <mxPoint x="170" y="-390" as="targetPoint" />
          </mxGeometry>
        </mxCell>
        <mxCell id="Gh1k9uJhNQ448oXCuwHy-389" value="" style="edgeStyle=elbowEdgeStyle;elbow=horizontal;endArrow=classic;html=1;curved=0;rounded=0;endSize=8;startSize=8;entryX=1;entryY=0.5;entryDx=0;entryDy=0;exitX=0.16;exitY=0.55;exitDx=0;exitDy=0;exitPerimeter=0;" parent="1" source="Gh1k9uJhNQ448oXCuwHy-366" target="Gh1k9uJhNQ448oXCuwHy-374" edge="1">
          <mxGeometry width="50" height="50" relative="1" as="geometry">
            <mxPoint x="-200" y="-260" as="sourcePoint" />
            <mxPoint x="-150" y="-310" as="targetPoint" />
          </mxGeometry>
        </mxCell>
        <mxCell id="Gh1k9uJhNQ448oXCuwHy-390" value="/point_cloud" style="edgeLabel;html=1;align=center;verticalAlign=middle;resizable=0;points=[];" parent="Gh1k9uJhNQ448oXCuwHy-389" vertex="1" connectable="0">
          <mxGeometry x="-0.2199" y="-1" relative="1" as="geometry">
            <mxPoint x="23" y="1" as="offset" />
          </mxGeometry>
        </mxCell>
        <mxCell id="Gh1k9uJhNQ448oXCuwHy-391" style="edgeStyle=orthogonalEdgeStyle;rounded=0;orthogonalLoop=1;jettySize=auto;html=1;entryX=0.4;entryY=0.1;entryDx=0;entryDy=0;entryPerimeter=0;" parent="1" source="Gh1k9uJhNQ448oXCuwHy-340" target="Gh1k9uJhNQ448oXCuwHy-338" edge="1">
          <mxGeometry relative="1" as="geometry" />
        </mxCell>
        <mxCell id="Gh1k9uJhNQ448oXCuwHy-392" value="omnibot_platform_drv" style="rounded=1;whiteSpace=wrap;html=1;" parent="1" vertex="1">
          <mxGeometry x="-852" y="177" width="150" height="60" as="geometry" />
        </mxCell>
        <mxCell id="Gh1k9uJhNQ448oXCuwHy-395" style="edgeStyle=orthogonalEdgeStyle;rounded=0;orthogonalLoop=1;jettySize=auto;html=1;entryX=0;entryY=0.5;entryDx=0;entryDy=0;exitX=0.875;exitY=0.5;exitDx=0;exitDy=0;exitPerimeter=0;" parent="1" source="Gh1k9uJhNQ448oXCuwHy-394" target="Gh1k9uJhNQ448oXCuwHy-392" edge="1">
          <mxGeometry relative="1" as="geometry" />
        </mxCell>
        <mxCell id="SPCHISvoJmXO9Pbl9xTI-2" value="geometry_msgs/Twist" style="edgeLabel;html=1;align=center;verticalAlign=middle;resizable=0;points=[];" parent="Gh1k9uJhNQ448oXCuwHy-395" vertex="1" connectable="0">
          <mxGeometry x="-0.139" y="1" relative="1" as="geometry">
            <mxPoint as="offset" />
          </mxGeometry>
        </mxCell>
        <mxCell id="Gh1k9uJhNQ448oXCuwHy-394" value="/cmd_vel" style="ellipse;shape=cloud;whiteSpace=wrap;html=1;" parent="1" vertex="1">
          <mxGeometry x="-1173" y="167" width="120" height="80" as="geometry" />
        </mxCell>
        <mxCell id="SPCHISvoJmXO9Pbl9xTI-12" style="edgeStyle=orthogonalEdgeStyle;rounded=0;orthogonalLoop=1;jettySize=auto;html=1;exitX=0.875;exitY=0.5;exitDx=0;exitDy=0;exitPerimeter=0;" parent="1" source="SPCHISvoJmXO9Pbl9xTI-3" target="Gh1k9uJhNQ448oXCuwHy-340" edge="1">
          <mxGeometry relative="1" as="geometry" />
        </mxCell>
        <mxCell id="SPCHISvoJmXO9Pbl9xTI-3" value="&lt;font style=&quot;font-size: 6px;&quot;&gt;/omnibot_platform/left_front_wheel/velocity&lt;/font&gt;" style="ellipse;shape=cloud;whiteSpace=wrap;html=1;" parent="1" vertex="1">
          <mxGeometry x="-580" y="130" width="190" height="140" as="geometry" />
        </mxCell>
        <mxCell id="SPCHISvoJmXO9Pbl9xTI-5" style="edgeStyle=orthogonalEdgeStyle;rounded=0;orthogonalLoop=1;jettySize=auto;html=1;entryX=0.16;entryY=0.55;entryDx=0;entryDy=0;entryPerimeter=0;" parent="1" source="Gh1k9uJhNQ448oXCuwHy-392" target="SPCHISvoJmXO9Pbl9xTI-3" edge="1">
          <mxGeometry relative="1" as="geometry" />
        </mxCell>
        <mxCell id="SPCHISvoJmXO9Pbl9xTI-13" style="edgeStyle=orthogonalEdgeStyle;rounded=0;orthogonalLoop=1;jettySize=auto;html=1;entryX=0;entryY=0.5;entryDx=0;entryDy=0;exitX=0.875;exitY=0.5;exitDx=0;exitDy=0;exitPerimeter=0;" parent="1" source="SPCHISvoJmXO9Pbl9xTI-6" target="Gh1k9uJhNQ448oXCuwHy-340" edge="1">
          <mxGeometry relative="1" as="geometry" />
        </mxCell>
        <mxCell id="SPCHISvoJmXO9Pbl9xTI-6" value="&lt;font style=&quot;font-size: 6px;&quot;&gt;/omnibot_platform/left_rear_wheel/velocity&lt;/font&gt;" style="ellipse;shape=cloud;whiteSpace=wrap;html=1;" parent="1" vertex="1">
          <mxGeometry x="-580" y="260" width="190" height="140" as="geometry" />
        </mxCell>
        <mxCell id="SPCHISvoJmXO9Pbl9xTI-14" style="edgeStyle=orthogonalEdgeStyle;rounded=0;orthogonalLoop=1;jettySize=auto;html=1;entryX=0;entryY=0.5;entryDx=0;entryDy=0;exitX=0.875;exitY=0.5;exitDx=0;exitDy=0;exitPerimeter=0;" parent="1" source="SPCHISvoJmXO9Pbl9xTI-7" target="Gh1k9uJhNQ448oXCuwHy-340" edge="1">
          <mxGeometry relative="1" as="geometry" />
        </mxCell>
        <mxCell id="SPCHISvoJmXO9Pbl9xTI-7" value="&lt;font style=&quot;font-size: 6px;&quot;&gt;/omnibot_platform/right_front_wheel/velocity&lt;/font&gt;" style="ellipse;shape=cloud;whiteSpace=wrap;html=1;" parent="1" vertex="1">
          <mxGeometry x="-580" y="400" width="190" height="140" as="geometry" />
        </mxCell>
        <mxCell id="SPCHISvoJmXO9Pbl9xTI-15" style="edgeStyle=orthogonalEdgeStyle;rounded=0;orthogonalLoop=1;jettySize=auto;html=1;entryX=0;entryY=0.5;entryDx=0;entryDy=0;exitX=0.875;exitY=0.5;exitDx=0;exitDy=0;exitPerimeter=0;" parent="1" source="SPCHISvoJmXO9Pbl9xTI-8" target="Gh1k9uJhNQ448oXCuwHy-340" edge="1">
          <mxGeometry relative="1" as="geometry">
            <mxPoint x="-390" y="600" as="sourcePoint" />
          </mxGeometry>
        </mxCell>
        <mxCell id="SPCHISvoJmXO9Pbl9xTI-8" value="&lt;font style=&quot;font-size: 6px;&quot;&gt;/omnibot_platform/right_rear_wheel/velocity&lt;/font&gt;" style="ellipse;shape=cloud;whiteSpace=wrap;html=1;" parent="1" vertex="1">
          <mxGeometry x="-580" y="530" width="190" height="140" as="geometry" />
        </mxCell>
        <mxCell id="SPCHISvoJmXO9Pbl9xTI-9" style="edgeStyle=orthogonalEdgeStyle;rounded=0;orthogonalLoop=1;jettySize=auto;html=1;entryX=0.16;entryY=0.55;entryDx=0;entryDy=0;entryPerimeter=0;" parent="1" source="Gh1k9uJhNQ448oXCuwHy-392" target="SPCHISvoJmXO9Pbl9xTI-6" edge="1">
          <mxGeometry relative="1" as="geometry">
            <Array as="points">
              <mxPoint x="-630" y="207" />
              <mxPoint x="-630" y="337" />
            </Array>
          </mxGeometry>
        </mxCell>
        <mxCell id="SPCHISvoJmXO9Pbl9xTI-10" style="edgeStyle=orthogonalEdgeStyle;rounded=0;orthogonalLoop=1;jettySize=auto;html=1;entryX=0.16;entryY=0.55;entryDx=0;entryDy=0;entryPerimeter=0;" parent="1" source="Gh1k9uJhNQ448oXCuwHy-392" target="SPCHISvoJmXO9Pbl9xTI-7" edge="1">
          <mxGeometry relative="1" as="geometry">
            <Array as="points">
              <mxPoint x="-630" y="207" />
              <mxPoint x="-630" y="477" />
            </Array>
          </mxGeometry>
        </mxCell>
        <mxCell id="SPCHISvoJmXO9Pbl9xTI-11" style="edgeStyle=orthogonalEdgeStyle;rounded=0;orthogonalLoop=1;jettySize=auto;html=1;entryX=0.16;entryY=0.55;entryDx=0;entryDy=0;entryPerimeter=0;" parent="1" source="Gh1k9uJhNQ448oXCuwHy-392" target="SPCHISvoJmXO9Pbl9xTI-8" edge="1">
          <mxGeometry relative="1" as="geometry">
            <Array as="points">
              <mxPoint x="-630" y="207" />
              <mxPoint x="-630" y="607" />
            </Array>
          </mxGeometry>
        </mxCell>
        <mxCell id="WWy7OUekYp64jV6yvM8z-1" value="" style="ellipse;shape=cloud;whiteSpace=wrap;html=1;" vertex="1" parent="1">
          <mxGeometry x="5" y="-550" width="120" height="80" as="geometry" />
        </mxCell>
        <mxCell id="WWy7OUekYp64jV6yvM8z-2" style="edgeStyle=orthogonalEdgeStyle;rounded=0;orthogonalLoop=1;jettySize=auto;html=1;entryX=0.875;entryY=0.5;entryDx=0;entryDy=0;entryPerimeter=0;" edge="1" parent="1" source="Gh1k9uJhNQ448oXCuwHy-362" target="WWy7OUekYp64jV6yvM8z-1">
          <mxGeometry relative="1" as="geometry">
            <Array as="points">
              <mxPoint x="180" y="-320" />
              <mxPoint x="180" y="-510" />
            </Array>
          </mxGeometry>
        </mxCell>
      </root>
    </mxGraphModel>
  </diagram>
</mxfile>
